<svg xmlns="http://www.w3.org/2000/svg" width="115" height="111" viewBox="0 0 115 111"><path d="M46 5L6 47c-16 16 9 14 18 20 5 3-14 6-10 9 4 4 22 8 25 11 4 4-7 8-3 11 3 4 12 1 13 9 1 6 16 3 22-2 4-4-7-4-3-7 9-9 17-4 20-13 2-4-14-7-9-10 9-6 44-10 28-26L65 5c-5-5-14-5-19 0zm47 80c0 2 16 4 15 0-1-7-13-6-15 0zM24 96c4 4 9 0 11-5-4-5-17 0-11 5zm67-6c-4 4 1 8 6 5 1 0 0-4-6-5z" opacity=".8"/><path d="M46 6L6 48c-16 16 9 14 18 20 5 2-14 6-10 9 4 4 22 8 25 11 4 4-7 8-3 11 3 4 12 1 13 9 1 6 16 3 22-2 4-4-7-4-3-7 9-9 17-4 20-13 2-4-14-7-9-10 9-6 44-10 28-26L65 6c-5-5-14-5-19 0zm47 80c0 2 16 4 15 0-1-7-13-6-15 0zM24 97c4 4 9 0 11-5-4-5-17 0-11 5zm67-6c-4 4 1 8 6 5 1 0 0-4-6-5z" opacity=".5"/><path d="M47 4L6 46C-9 61 16 60 25 66c5 3-13 6-10 10 4 4 22 7 26 11 3 3-8 7-4 11 3 4 12 0 13 8 1 7 16 4 22-2 4-3-7-3-3-7 9-9 17-4 20-12 2-5-14-8-10-11 10-7 46-10 29-27L66 4c-5-5-14-5-19 0zm47 81c0 2 16 3 15-1-1-6-13-6-15 1zM25 96c4 3 9-1 11-5-3-5-17 0-11 5zm67-7c-4 4 1 9 5 6 2-1 0-5-5-6z"/><path d="M47 4L6 46C-9 61 16 60 25 66c5 3-13 6-10 10 4 4 22 7 26 11 3 3-8 7-4 11 3 4 12 0 13 8 1 7 16 4 22-2 4-3-7-3-3-7 9-9 17-4 20-12 2-5-14-8-10-11 10-7 46-10 29-27L66 4c-5-5-14-5-19 0zm47 81c0 2 16 3 15-1-1-6-13-6-15 1zM25 96c4 3 9-1 11-5-3-5-17 0-11 5zm67-7c-4 4 1 9 5 6 2-1 0-5-5-6z" fill="none"/><g transform="matrix(.98 0 0 .98 56 55)"><linearGradient id="a" gradientUnits="userSpaceOnUse" x1="82.1" y1="20" x2="60" y2="40"><stop offset="0%" stop-color="#c0cdf9"/><stop offset="100%" stop-color="#07092d" stop-opacity=".3"/></linearGradient><path transform="translate(-64 -64)" d="M54 13L13 55C-3 70 23 69 32 75c5 3-14 6-10 10s22 7 25 11c4 3-7 7-3 11 3 4 12 0 13 9 1 6 16 3 22-3 4-3-7-3-3-7 9-9 17-4 20-12 2-5-14-8-9-11 9-7 45-10 29-27L73 13c-5-5-14-5-19 0zM44 77c1 0 31 4 20 7-5 1-25-7-20-7zm57 17c0 2 17 3 16-1-1-6-14-6-16 1zm-69 11c4 3 9-1 11-5-4-5-17 0-11 5zm67-7c-4 4 1 9 6 6 1-1 0-5-6-6z" fill="url(#a)" opacity=".7"/></g><g transform="matrix(.99 0 0 .99 34 34)"><linearGradient id="b" gradientUnits="userSpaceOnUse" x1="32.9" y1="34.9" x2="58.1" y2="60.2"><stop offset="0%" stop-color="#fff"/><stop offset="100%" stop-color="#fff" stop-opacity="0"/></linearGradient><path transform="translate(-42 -42)" d="M17 57c-12 11 8 8 23 14l31-55c-4-5-10-4-15 0z" fill="url(#b)" opacity=".5"/></g><g transform="matrix(.99 0 0 .99 53 21)"><linearGradient id="c" gradientUnits="userSpaceOnUse" x1="60" y1="20" x2="90" y2="50"><stop offset="0%" stop-color="#fff"/><stop offset="100%" stop-color="#fff" stop-opacity="0"/></linearGradient><path transform="translate(-61 -28)" d="M71 16l16 16v6l-8-7-1 10-7-4-11 7-3-14-6 12H36c-3 0-2-3 1-6l20-20c4-4 10-4 14 0z" fill="url(#c)"/></g><g transform="matrix(.53 0 0 .53 54 96)"><radialGradient id="d" gradientUnits="userSpaceOnUse" gradientTransform="matrix(1.57 0 0 1.05 -75 -22)" cx="116.3" cy="250.9" r="30.6" fx="116.3" fy="250.9"><stop offset="0%" stop-color="#fff"/><stop offset="100%" stop-color="#fff" stop-opacity="0"/></radialGradient><path transform="translate(-137 -224)" d="M113 204l3 7c-1 5-11 7-9 11 3 4 11 2 17 6 7 5 5 13 10 16 10 4 35-8 33-8s-24 6-30 1-7-8-12-11c-4-2-10-4-11-6s3-5 3-9c0-3-4-7-4-7z" fill="url(#d)" fill-rule="evenodd" opacity=".2"/></g><g transform="matrix(.53 0 0 .53 54 96)"><radialGradient id="e" gradientUnits="userSpaceOnUse" gradientTransform="matrix(2 0 0 1.34 -133 -95)" cx="132.4" cy="252" r="30.6" fx="132.4" fy="252"><stop offset="0%" stop-color="#fff"/><stop offset="100%" stop-color="#fff" stop-opacity="0"/></radialGradient><path transform="translate(-137 -224)" d="M113 204l3 7c-1 5-11 7-9 11 3 4 11 2 17 6 7 5 5 13 10 16 10 4 35-8 33-8-41 1-33-10-49-17-3-1-1-4-1-8 0-3-4-7-4-7z" fill="url(#e)" fill-rule="evenodd" opacity=".3"/></g><g transform="matrix(.53 0 0 .53 93 67)"><radialGradient id="f" gradientUnits="userSpaceOnUse" gradientTransform="matrix(1 0 0 .42 0 97)" cx="210.3" cy="168.5" r="34.3" fx="210.3" fy="168.5"><stop offset="0%" stop-color="#fff"/><stop offset="100%" stop-color="#fff" stop-opacity="0"/></radialGradient><path transform="translate(-210 -168)" d="M183 182c37-14 49-16 62-28-15 12-45 18-69 29z" fill="url(#f)" fill-rule="evenodd" opacity=".5"/></g><g transform="matrix(.53 0 0 .53 93 66)"><radialGradient id="g" gradientUnits="userSpaceOnUse" gradientTransform="matrix(1 0 0 .42 0 97)" cx="217.5" cy="182.1" r="34.3" fx="217.5" fy="182.1"><stop offset="0%" stop-color="#fff"/><stop offset="100%" stop-color="#fff" stop-opacity="0"/></radialGradient><path transform="translate(-210 -168)" d="M183 182c61-22 51-22 62-28-20 7-56 8-69 29z" fill="url(#g)" fill-rule="evenodd" opacity=".5"/></g><g transform="matrix(.53 0 0 .53 110 84)"><linearGradient id="h" gradientUnits="userSpaceOnUse" x1="231.6" y1="195.2" x2="231.8" y2="201.5"><stop offset="0%" stop-color="#fff"/><stop offset="100%" stop-color="#fff" stop-opacity="0"/></linearGradient><path transform="translate(-246 -203)" d="M238 199a8 2 0 11-16 0z" fill="url(#h)" opacity=".3"/></g><g transform="matrix(.71 0 0 1.13 113 87)"><linearGradient id="i" gradientUnits="userSpaceOnUse" x1="231.4" y1="195.6" x2="231.4" y2="200.1"><stop offset="0%" stop-color="#fff"/><stop offset="100%" stop-color="#fff" stop-opacity="0"/></linearGradient><path transform="translate(-246 -203)" d="M238 199a8 2 0 11-16 0z" fill="url(#i)" opacity=".6"/></g><g transform="matrix(.53 0 0 .53 102 85)"><radialGradient id="j" gradientUnits="userSpaceOnUse" gradientTransform="matrix(1 0 0 .15 0 175)" cx="228.2" cy="204.8" r="14.1" fx="228.2" fy="204.8"><stop offset="0%" stop-color="#fff"/><stop offset="100%" stop-color="#fff" stop-opacity="0"/></radialGradient><path transform="translate(-228 -205)" d="M214 204c4 3 25 5 28-1-6 5-21 3-28 1z" fill="url(#j)" fill-rule="evenodd"/></g><g transform="matrix(.21 -.1 .24 .47 96 93)"><linearGradient id="k" gradientUnits="userSpaceOnUse" x1="231.6" y1="195.2" x2="231.8" y2="201.5"><stop offset="0%" stop-color="#fff"/><stop offset="100%" stop-color="#fff" stop-opacity="0"/></linearGradient><path transform="translate(-240 -202)" d="M236 199a7 3 0 11-13 0z" fill="url(#k)" opacity=".3"/></g><g transform="matrix(.28 -.14 .51 1.01 98 94)"><linearGradient id="l" gradientUnits="userSpaceOnUse" x1="231.4" y1="195.6" x2="231.4" y2="200.1"><stop offset="0%" stop-color="#fff"/><stop offset="100%" stop-color="#fff" stop-opacity="0"/></linearGradient><path transform="translate(-243 -202)" d="M237 199a7 2 0 11-14 0z" fill="url(#l)" opacity=".6"/></g><g transform="matrix(.21 -.1 .24 .47 95 95)"><radialGradient id="m" gradientUnits="userSpaceOnUse" gradientTransform="matrix(1 0 0 .15 0 175)" cx="228.2" cy="204.8" r="14.1" fx="228.2" fy="204.8"><stop offset="0%" stop-color="#fff"/><stop offset="100%" stop-color="#fff" stop-opacity="0"/></radialGradient><path transform="translate(-230 -204)" d="M217 202c4 3 27 9 25 1-3 5-18 1-25-1z" fill="url(#m)" fill-rule="evenodd"/></g><g transform="matrix(.53 0 0 .53 30 81)"><radialGradient id="n" gradientUnits="userSpaceOnUse" gradientTransform="matrix(1 0 0 .41 0 116)" cx="89.9" cy="187.9" r="22.8" fx="89.9" fy="187.9"><stop offset="0%" stop-color="#fff" stop-opacity=".3"/><stop offset="100%" stop-color="#fff" stop-opacity="0"/></radialGradient><path transform="translate(-91 -195)" d="M68 186c0-1 39 12 46 19-6-6-33-18-38-18l-8-1z" fill="url(#n)" fill-rule="evenodd"/></g><g transform="matrix(.46 -.1 .12 .36 36 91)"><linearGradient id="o" gradientUnits="userSpaceOnUse" x1="231.6" y1="195.2" x2="231.8" y2="201.5"><stop offset="0%" stop-color="#fff"/><stop offset="100%" stop-color="#fff" stop-opacity="0"/></linearGradient><path transform="translate(-246 -203)" d="M238 199a8 2 0 11-16 0z" fill="url(#o)" opacity=".3"/></g><g transform="matrix(.63 -.14 .27 .79 41 93)"><linearGradient id="p" gradientUnits="userSpaceOnUse" x1="231.4" y1="195.6" x2="231.4" y2="200.1"><stop offset="0%" stop-color="#fff"/><stop offset="100%" stop-color="#fff" stop-opacity="0"/></linearGradient><path transform="translate(-246 -203)" d="M238 199a8 2 0 11-16 0z" fill="url(#p)" opacity=".6"/></g><g transform="matrix(.53 0 0 .53 30 94)"><radialGradient id="q" gradientUnits="userSpaceOnUse" gradientTransform="matrix(1.19 -.33 .12 .44 -45 153)" cx="90.3" cy="230.8" r="10.5" fx="90.3" fy="230.8"><stop offset="0%" stop-color="#fff"/><stop offset="100%" stop-color="#fff" stop-opacity="0"/></radialGradient><path transform="translate(-91 -221)" d="M81 220s2 6 7 6c6 0 13-7 13-10-1 3-6 9-13 9-4 0-7-5-7-5z" fill="url(#q)" fill-rule="evenodd" opacity=".6"/></g><g transform="matrix(.99 0 0 .99 51 50)"><radialGradient id="r" gradientUnits="userSpaceOnUse" gradientTransform="matrix(1.72 0 0 1.69 -49 -14)" cx="68.4" cy="21.2" r="54.8" fx="68.4" fy="21.2"><stop offset="0%" stop-color="#fff"/><stop offset="100%" stop-color="#fff" stop-opacity="0"/></radialGradient><path transform="translate(-59 -58)" d="M63 10c-3 0-6 1-8 4L14 56c-4 3-5 6-5 7l2 2 3 2 10 3 9 4 1 1v1l-1 2-5 3-4 2-1 1s0 0 0 0c1 1 2 2 5 2l7 3 8 3 6 3 1 2-1 2-2 3-2 3s0 0 0 0v1l7 2 4 2 3 5c0 1 0 2 2 2h5c4 0 9-2 12-5 0 0 0 0 0 0l-1-1-3-2v-2l1-2c4-5 9-6 13-7l4-1 3-4s0 0 0 0l-1-1-4-3-4-2-2-3 2-2 11-5 13-5 8-6v-4l-3-5-43-43h0c-2-3-6-4-9-4zm46 80l-6 3 1 1a28 2 8 010 0l1-1-2-2-4-1zm-70 9l-6 2-1 1 1 2h4l4-4zm61 1l-1 1 1 2h4c0-1-1-2-3-2z" stroke="url(#r)" stroke-width=".5" fill="none"/></g><g transform="matrix(.49 0 0 .49 51 85)"><linearGradient id="s" gradientUnits="userSpaceOnUse" x1="95.5" y1="208.2" x2="153.5" y2="223.5"><stop offset="0%" stop-color="#fff"/><stop offset="100%" stop-color="#fff" stop-opacity="0"/></linearGradient><path transform="translate(-129 -208)" d="M96 172c-6 2-22 8-20 13 2 4 41 6 47 20 2 5-6 10-4 16 2 5 14 16 22 22 7 4 15-3 12-10-6-10 18-23 29-29 6-3-13-20-13-20z" fill="url(#s)" fill-rule="evenodd" opacity=".3"/></g><g transform="matrix(.99 0 0 .99 45 72)"><linearGradient id="t" gradientUnits="userSpaceOnUse" x1="55.8" y1="76.7" x2="52.7" y2="84"><stop offset="0%" stop-color="#eeeeec"/><stop offset="100%" stop-color="#eeeeec" stop-opacity="0"/></linearGradient><path transform="translate(-53 -80)" d="M42 79l9 1c6 3 14 6 13 1l-2 1v-2h-4l-4-3-2 2v-2a48 4 8 00-5 0c-4 0-7 0-5 2z" fill="url(#t)" fill-rule="evenodd"/></g><g transform="matrix(.49 0 0 .49 76 89)"><radialGradient id="u" gradientUnits="userSpaceOnUse" gradientTransform="matrix(1.35 0 0 1.72 -64 -154)" cx="181.2" cy="214.6" r="22.5" fx="181.2" fy="214.6"><stop offset="0%" stop-color="#fff"/><stop offset="100%" stop-color="#fff" stop-opacity="0"/></radialGradient><path transform="translate(-181 -215)" d="M183 187c-2 7 21 16 20 20-4 10-25 3-41 24-3 3 3 13 2 12s-6-10-5-14c5-14 49-19 41-25-5-4-22-14-17-17z" fill="url(#u)" fill-rule="evenodd" opacity=".5"/></g><path d="M102 81a2 2 0 11-3 0zm-8 10a1 1 0 11-2 0zm-63-1a2 2 0 11-3 0z" fill="#fff" opacity=".6"/><g transform="matrix(.99 0 0 .99 24 73)"><linearGradient id="v" gradientUnits="userSpaceOnUse" x1="30.3" y1="79.2" x2="34.8" y2="82.8"><stop offset="0%" stop-color="#fff"/><stop offset="100%" stop-color="#fff" stop-opacity="0"/></linearGradient><path transform="translate(-31 -81)" d="M37 77c-7 4-19 6-6 9-2-4 3-3 6-9z" fill="url(#v)" opacity=".3"/></g><g transform="matrix(.49 0 0 .49 81 68)"><linearGradient id="w" gradientUnits="userSpaceOnUse" x1="50.6" y1="134.1" x2="23.5" y2="61.1"><stop offset="0%" stop-color="#729fcf"/><stop offset="100%" stop-color="#729fcf" stop-opacity="0"/></linearGradient><path transform="translate(-62 -89)" d="M9 172s22-2 28-9c3-4-12-8-9-12 12-14 23-13 37-19s9-9 4-12c-8-4-25-9-20-19 6-11 58-26 58-26 15-5 13-15 6-23L67 7s2 43-7 62c-12 23-73 48-47 51 9 1 13 4 17 11 7 14-21 41-21 41z" fill="url(#w)" opacity=".4"/></g></svg>