<svg xmlns="http://www.w3.org/2000/svg" xmlns:xlink="http://www.w3.org/1999/xlink" height="831.936" width="882.747" viewBox="0 0 882.747 831.936"><defs><linearGradient id="d"><stop offset="0" stop-color="#fefe34"/><stop offset="1" stop-color="#fefe34" stop-opacity="0"/></linearGradient><linearGradient id="c"><stop offset="0" stop-color="#3fffff"/><stop offset="1" stop-color="#3fffff" stop-opacity="0"/></linearGradient><linearGradient id="e"><stop offset="0" stop-color="#ff20ff"/><stop offset="1" stop-color="#fff" stop-opacity="0"/></linearGradient><linearGradient id="a"><stop offset="0" stop-color="#343434"/><stop offset="1" stop-color="#4d4d4d"/></linearGradient><linearGradient id="b"><stop offset="0" stop-color="#5596ea"/><stop offset="1" stop-color="#5596ea" stop-opacity="0"/></linearGradient><linearGradient y2="200.874" x2="1280.895" y1="62.713" x1="1142.588" gradientTransform="rotate(-5.889 1223.265 99.834)" gradientUnits="userSpaceOnUse" id="i" xlink:href="#a"/><linearGradient gradientTransform="scale(1 -1) rotate(-89.363 1091.82 1.789)" y2="89.862" x2="1324.91" y1="230.862" x1="1327.594" gradientUnits="userSpaceOnUse" id="j" xlink:href="#b"/><linearGradient xlink:href="#d" id="f" x1="-2013.754" y1="1709.469" x2="-982.864" y2="1709.469" gradientUnits="userSpaceOnUse" gradientTransform="matrix(.78658 0 0 .78658 541.952 114.175)"/><linearGradient xlink:href="#c" id="g" gradientUnits="userSpaceOnUse" gradientTransform="matrix(.78658 0 0 .78658 2123.601 -63.93)" x1="-2013.754" y1="1709.469" x2="-1567.11" y2="1821.323"/><linearGradient xlink:href="#e" id="h" gradientUnits="userSpaceOnUse" gradientTransform="matrix(.78658 0 0 .78658 1000.428 -2926.275)" x1="-2013.754" y1="1709.469" x2="-982.864" y2="1709.469"/></defs><g transform="translate(-35.753 -106.564)"><circle cx="532" cy="-512" transform="rotate(90)" r="406.5" fill="#868686"/><g transform="translate(-1069.649 690.105)"><circle cx="-178.105" cy="-1581.649" r="405.436" transform="rotate(90)" fill="#868686"/><circle cx="-636.581" cy="1458.801" r="405.436" transform="rotate(-120)" fill="url(#f)"/><circle cx="945.068" cy="1280.696" r="405.436" transform="rotate(-60)" fill="url(#g)"/><circle cx="-178.105" cy="-1581.649" r="405.436" transform="rotate(90)" fill="url(#h)"/></g><path d="M220.07 230.486a406 406 0 00-58.707 77.633c59.99 58.765 124.377 122.509 150.866 151.053 43.449 46.822 134.022 115.223 200.072 107.35 26.082 18.343 85.18 59.442 104.937 69.187-.387 9.444 1.503 19.02 4.9 28.527 18.523 51.842 87.765 85.52 47.46 140.772 79.34-48.078 100.441-128.312 66.824-185.541-20.992-35.735-51.532-47.467-76.955-38.924-15.225-17.22-75.788-67.51-98.086-85.867-14.218-63.94-100.445-129.893-155.373-158.498-34.591-18.015-113.296-63.343-185.938-105.692z" fill-opacity=".475"/><path d="M1287.872 191.77c-18.296 17.072-53.495-10.007-68.352-27.014-15.281-17.493-72.34-76.49-76.511-80.316-4.17-3.827-7.492-8.552-3.804-13.253 3.839-4.578 9.148-2.304 13.752.987 4.605 3.292 74.107 46.948 94.377 58.29 19.707 11.028 53.467 39.881 40.538 61.307z" fill="url(#i)" transform="translate(-3949.233 -128.646) scale(3.50294)"/><path d="M1317.223 208.618c-71.406 63.701-129.81 2.652-138.859-18.496 5.351 36.707 30.086 69.556 67.453 82.197 28.22 9.548 73.253 9.326 93.442-27.047z" fill="url(#j)" transform="translate(-3949.233 -128.646) scale(3.50294)"/><path d="M663.886 623.131c-20.432 9.358-18.223 16.121-36.365 13.204-12.513-2.013-120.911-84.18-120.911-84.18-5.495-13.186 1.096-31.313 13.476-45.66 11.483-15.074 27.86-25.263 41.895-22.608 0 0 102.769 89.109 107.32 100.937 6.599 17.15-.475 16.384-5.415 38.307z" fill="#bfbfbf"/><path d="M669.495 804.895c80.748-45.675 104.25-125.238 72.366-183.45-24.777-45.237-65.46-53.79-93.559-31.917-27.875 21.699-30.332 47.555-22.017 73.234 16.957 52.375 85.156 88.115 43.21 142.133z" fill="#282828"/></g></svg>