<svg xmlns="http://www.w3.org/2000/svg" viewBox="0 0 400 400"><g fill="none"><path d="M227.92 133.45l-13.69 24.1-46.81-82.44L23.7 328.17H121c0 13.31 10.62 24.1 23.71 24.1h-121c-8.47 0-16.3-4.6-20.53-12.05a24.45 24.45 0 010-24.1L146.89 63.05A23.63 23.63 0 01167.42 51c8.47 0 16.3 4.6 20.53 12.05l39.97 70.4z" fill="#00C58E"/><path d="M331.66 316.12l-90.05-158.57-13.69-24.1-13.69 24.1-90.04 158.57a24.45 24.45 0 000 24.1 23.63 23.63 0 0020.52 12.05h166.4c8.47 0 16.3-4.59 20.53-12.05a24.45 24.45 0 000-24.1h.02zm-186.95 12.05l83.21-146.52 83.2 146.52h-166.4z" fill="#FFF"/><path d="M396.05 340.22a23.63 23.63 0 01-20.52 12.05H311.1c13.1 0 23.7-10.79 23.7-24.1h40.67L260.1 125l-18.49 32.56-13.69-24.1 11.66-20.52a23.63 23.63 0 0120.52-12.05c8.47 0 16.3 4.6 20.53 12.05l115.42 203.19a24.45 24.45 0 010 24.1z" fill="#108775"/></g></svg>