<svg xmlns="http://www.w3.org/2000/svg" width="121.2" height="135.599"><defs><clipPath id="a"><path d="M0 0h512v512H0Z"/></clipPath><clipPath id="b"><path d="M0 0h1536v1536H0Z"/></clipPath></defs><g clip-path="url(#a)" transform="matrix(.4 0 0 .4 -41.6 -35.2)" style="display:block"><path stroke="#24c8db" stroke-width="2" d="M-6.969-40a40.4 40.4 0 0 0-28.965 23.024 40.374 40.374 0 0 0 6.579 43.349A40.42 40.42 0 0 0-9.973 38.507a40.44 40.44 0 0 0 22.869-.323 40.414 40.414 0 0 0 19.031-12.678A40.38 40.38 0 0 0 39.5 11.614a47.164 47.164 0 0 1-15.504 4.53 28.404 28.404 0 0 1-30.733 10.8 28.397 28.397 0 0 1-13.62-8.527 28.369 28.369 0 0 1 5.855-42.641 28.392 28.392 0 0 1 5.955-2.924 28.709 28.709 0 0 1-.162-3.05c0-3.445.614-6.747 1.74-9.802z" fill="none" transform="matrix(3 0 0 3 225.5 304)" style="display:block"/><path stroke="#ffc131" stroke-width="2" d="M7.075 40a40.424 40.424 0 0 0 28.072-21.364 40.378 40.378 0 0 0-3.504-42.171 40.415 40.415 0 0 0-17.364-13.5 40.44 40.44 0 0 0-41.757 6.981A40.397 40.397 0 0 0-39.5-11.646a47.172 47.172 0 0 1 15.5-4.5A28.418 28.418 0 0 1-5.605-27.601 28.417 28.417 0 0 1 21.962-16.42a28.373 28.373 0 0 1 2.463 29.634A28.396 28.396 0 0 1 8.423 27.208c.14 1.144.213 2.308.213 3.49 0 3.258-.55 6.388-1.561 9.302z" fill="none" transform="matrix(3 0 0 3 285.5 211)" style="display:block"/><path stroke="#24c8db" stroke-width="2" d="M0-10.5c-5.799 0-10.5 4.701-10.5 10.5S-5.799 10.5 0 10.5 10.5 5.799 10.5 0 5.799-10.5 0-10.5Z" fill="none" transform="matrix(3 0 0 3 228.5 302.5)" style="display:block"/><path stroke="#ffc131" stroke-width="2" d="M0 10.5c5.799 0 10.5-4.701 10.5-10.5S5.799-10.5 0-10.5-10.5-5.799-10.5 0-5.799 10.5 0 10.5z" fill="none" transform="matrix(3 0 0 3 282.5 212.5)" style="display:block"/><g clip-path="url(#b)" transform="translate(-520.51 -520.51) scale(1.01108)" style="display:block"><path fill="#ffc131" d="M0 10.5c5.799 0 10.5-4.701 10.5-10.5S5.799-10.5 0-10.5-10.5-5.799-10.5 0-5.799 10.5 0 10.5z" transform="matrix(3 0 0 3 793.5 724.5)" style="display:block"/><path fill="#24c8db" d="M0-10.5c-5.799 0-10.5 4.701-10.5 10.5S-5.799 10.5 0 10.5 10.5 5.799 10.5 0 5.799-10.5 0-10.5Z" transform="matrix(3 0 0 3 739.5 814.5)" style="display:block"/><path fill="#ffc131" d="M7.075 40a40.424 40.424 0 0 0 28.072-21.364 40.378 40.378 0 0 0-3.504-42.171 40.415 40.415 0 0 0-17.364-13.5 40.44 40.44 0 0 0-41.757 6.981A40.397 40.397 0 0 0-39.5-11.646a47.172 47.172 0 0 1 15.5-4.5A28.418 28.418 0 0 1-5.605-27.601 28.417 28.417 0 0 1 21.962-16.42a28.373 28.373 0 0 1 2.463 29.634A28.396 28.396 0 0 1 8.423 27.208c.14 1.144.213 2.308.213 3.49 0 3.258-.55 6.388-1.561 9.302z" transform="matrix(3 0 0 3 796.5 723)" style="display:block"/><path fill="#24c8db" d="M-6.969-40a40.4 40.4 0 0 0-28.965 23.024 40.374 40.374 0 0 0 6.579 43.349A40.42 40.42 0 0 0-9.973 38.507a40.44 40.44 0 0 0 22.869-.323 40.414 40.414 0 0 0 19.031-12.678A40.38 40.38 0 0 0 39.5 11.614a47.164 47.164 0 0 1-15.504 4.53 28.404 28.404 0 0 1-30.733 10.8 28.397 28.397 0 0 1-13.62-8.527 28.369 28.369 0 0 1 5.855-42.641 28.392 28.392 0 0 1 5.955-2.924 28.709 28.709 0 0 1-.162-3.05c0-3.445.614-6.747 1.74-9.802z" transform="matrix(3 0 0 3 736.5 816)" style="display:block"/></g></g></svg>