<svg id="svg" version="1.1" xmlns="http://www.w3.org/2000/svg" xmlns:xlink="http://www.w3.org/1999/xlink" width="400" height="400" viewBox="80, 100, 250, 200"><g id="svgg"><path id="path0" d="M188.477 102.771 C 184.015 103.402,183.389 103.497,181.250 103.866 C 170.884 105.656,156.763 111.072,148.037 116.606 C 134.481 125.203,124.612 134.780,116.413 147.295 C 102.009 169.281,97.057 197.534,103.068 223.438 C 103.925 227.131,104.907 230.635,105.640 232.617 C 108.583 240.576,111.470 246.808,114.384 251.496 C 115.496 253.285,116.406 254.842,116.406 254.955 C 116.406 256.186,127.920 269.749,132.312 273.691 C 185.078 321.058,268.042 300.530,291.991 234.182 C 292.999 231.390,293.872 228.754,293.930 228.323 C 293.989 227.892,294.146 227.275,294.279 226.953 C 294.821 225.635,296.437 217.931,296.859 214.648 C 297.108 212.715,297.401 210.518,297.510 209.766 C 297.869 207.286,297.709 193.626,297.277 189.844 C 292.014 143.850,257.706 109.061,211.548 102.913 C 206.874 102.290,192.499 102.202,188.477 102.771 M206.055 112.290 C 224.126 113.213,243.580 121.212,257.276 133.351 C 259.480 135.304,259.448 135.403,256.535 135.636 C 250.778 136.099,245.592 140.809,243.966 147.055 C 242.370 153.182,244.125 159.039,250.875 170.117 C 260.776 186.364,261.537 199.058,253.910 220.727 C 252.819 223.829,250.427 231.289,248.595 237.305 C 246.764 243.320,245.114 248.682,244.930 249.219 C 244.745 249.756,244.293 251.202,243.926 252.433 C 243.221 254.795,242.833 254.997,242.403 253.226 C 241.967 251.435,226.445 204.133,213.434 164.950 C 212.491 162.108,211.719 159.624,211.719 159.430 C 211.719 159.236,213.433 158.950,215.527 158.794 C 221.757 158.331,223.096 158.029,224.102 156.860 C 225.323 155.441,225.253 153.812,223.908 152.306 L 222.816 151.083 214.178 151.530 C 200.487 152.239,182.259 151.982,175.586 150.986 C 172.067 150.461,169.788 152.569,170.675 155.528 C 171.255 157.464,172.394 158.000,176.758 158.392 C 181.950 158.858,182.923 158.964,183.013 159.074 C 183.061 159.132,184.279 162.520,185.720 166.602 C 187.161 170.684,189.014 175.869,189.838 178.125 C 191.951 183.909,195.282 193.230,195.981 195.313 L 196.571 197.070 191.652 211.719 C 182.885 237.824,177.001 255.161,176.857 255.304 C 176.780 255.381,174.547 248.814,171.894 240.710 C 169.242 232.607,163.469 215.078,159.065 201.758 C 144.228 156.876,144.958 159.209,145.660 158.925 C 146.006 158.785,148.460 158.499,151.114 158.288 C 156.515 157.860,157.730 157.326,158.298 155.134 C 159.180 151.730,156.872 150.643,149.843 151.150 C 142.491 151.681,126.337 152.101,125.810 151.775 C 124.962 151.251,130.955 143.654,136.847 137.786 C 150.976 123.712,169.973 114.659,189.844 112.531 C 196.363 111.833,196.927 111.824,206.055 112.290 M279.456 162.504 C 286.729 177.968,289.446 196.642,286.870 213.477 C 286.542 215.625,286.220 217.910,286.157 218.555 C 285.793 222.231,281.472 234.216,278.059 241.016 C 270.905 255.269,257.997 269.291,245.215 276.693 C 242.894 278.037,242.862 278.341,245.944 269.831 C 247.366 265.907,249.288 260.498,250.215 257.813 C 251.142 255.127,252.900 250.117,254.122 246.680 C 256.201 240.829,258.648 233.863,262.697 222.266 C 267.711 207.907,270.356 200.442,272.458 194.727 C 276.574 183.529,278.460 170.752,277.401 161.230 C 277.011 157.718,277.285 157.888,279.456 162.504 M120.630 170.416 C 121.772 173.689,122.950 176.982,123.248 177.734 C 123.546 178.486,125.756 184.639,128.158 191.406 C 134.589 209.525,135.359 211.683,136.306 214.258 C 137.206 216.705,140.837 226.872,142.375 231.250 C 142.865 232.646,143.538 234.492,143.870 235.352 C 144.203 236.211,145.823 240.693,147.470 245.313 C 149.118 249.932,151.259 255.908,152.228 258.594 C 153.197 261.279,154.835 265.850,155.867 268.750 C 156.900 271.650,158.285 275.474,158.946 277.246 C 160.268 280.789,160.197 280.898,157.478 279.521 C 117.322 259.172,99.882 209.375,117.624 165.723 C 118.364 163.902,118.352 163.883,120.630 170.416 M201.687 210.938 C 202.027 211.904,203.531 216.123,205.030 220.313 C 206.529 224.502,209.273 232.236,211.128 237.500 C 212.983 242.764,214.771 247.773,215.101 248.633 C 215.431 249.492,217.097 254.150,218.805 258.984 C 220.512 263.818,222.148 268.389,222.440 269.141 C 222.732 269.893,223.703 272.617,224.598 275.195 C 225.493 277.773,226.638 280.938,227.142 282.227 C 227.646 283.516,227.942 284.691,227.799 284.838 C 227.414 285.234,219.415 287.393,215.820 288.071 C 202.455 290.590,188.361 290.098,175.684 286.668 C 173.487 286.074,173.491 286.105,175.039 281.738 C 175.705 279.858,176.572 277.354,176.965 276.172 C 177.358 274.990,177.975 273.232,178.336 272.266 C 178.697 271.299,179.756 268.311,180.690 265.625 C 181.623 262.939,182.856 259.424,183.429 257.813 C 184.572 254.596,187.838 245.212,193.351 229.297 C 195.323 223.604,197.714 216.795,198.664 214.166 C 199.614 211.538,200.391 209.174,200.391 208.913 C 200.391 208.081,201.039 209.094,201.687 210.938 " stroke="none" fill="#f1eeec" fill-rule="evenodd"></path><path id="path1" d="M193.750 93.411 C 143.308 95.778,100.655 135.724,93.674 187.136 C 91.983 199.583,94.250 223.712,97.927 232.422 C 98.063 232.744,98.197 233.096,98.224 233.203 C 98.657 234.912,100.565 239.854,102.196 243.494 C 127.808 300.643,194.672 323.761,250.330 294.710 C 307.640 264.796,324.975 188.796,286.322 136.914 C 264.249 107.287,231.002 91.664,193.750 93.411 M211.548 102.913 C 257.706 109.061,292.014 143.850,297.277 189.844 C 297.709 193.626,297.869 207.286,297.510 209.766 C 297.401 210.518,297.108 212.715,296.859 214.648 C 296.437 217.931,294.821 225.635,294.279 226.953 C 294.146 227.275,293.989 227.892,293.930 228.323 C 293.872 228.754,292.999 231.390,291.991 234.182 C 268.042 300.530,185.078 321.058,132.312 273.691 C 127.920 269.749,116.406 256.186,116.406 254.955 C 116.406 254.842,115.496 253.285,114.384 251.496 C 111.470 246.808,108.583 240.576,105.640 232.617 C 104.907 230.635,103.925 227.131,103.068 223.438 C 94.546 186.717,107.884 147.888,137.101 124.362 C 140.850 121.344,143.240 119.648,148.037 116.606 C 156.763 111.072,170.884 105.656,181.250 103.866 C 183.389 103.497,184.015 103.402,188.477 102.771 C 192.499 102.202,206.874 102.290,211.548 102.913 M195.703 112.003 C 173.413 113.130,152.326 122.367,136.847 137.786 C 130.955 143.654,124.962 151.251,125.810 151.775 C 126.337 152.101,142.491 151.681,149.843 151.150 C 156.872 150.643,159.180 151.730,158.298 155.134 C 157.730 157.326,156.515 157.860,151.114 158.288 C 148.460 158.499,146.006 158.785,145.660 158.925 C 144.958 159.209,144.228 156.876,159.065 201.758 C 163.469 215.078,169.242 232.607,171.894 240.710 C 174.547 248.814,176.780 255.381,176.857 255.304 C 177.001 255.161,182.885 237.824,191.652 211.719 L 196.571 197.070 195.981 195.313 C 195.282 193.230,191.951 183.909,189.838 178.125 C 189.014 175.869,187.161 170.684,185.720 166.602 C 184.279 162.520,183.061 159.132,183.013 159.074 C 182.923 158.964,181.950 158.858,176.758 158.392 C 172.394 158.000,171.255 157.464,170.675 155.528 C 169.788 152.569,172.067 150.461,175.586 150.986 C 182.259 151.982,200.487 152.239,214.178 151.530 L 222.816 151.083 223.908 152.306 C 225.253 153.812,225.323 155.441,224.102 156.860 C 223.096 158.029,221.757 158.331,215.527 158.794 C 213.433 158.950,211.719 159.236,211.719 159.430 C 211.719 159.624,212.491 162.108,213.434 164.950 C 226.445 204.133,241.967 251.435,242.403 253.226 C 242.833 254.997,243.221 254.795,243.926 252.433 C 244.293 251.202,244.745 249.756,244.930 249.219 C 245.114 248.682,246.764 243.320,248.595 237.305 C 250.427 231.289,252.819 223.829,253.910 220.727 C 261.537 199.058,260.776 186.364,250.875 170.117 C 244.125 159.039,242.370 153.182,243.966 147.055 C 245.592 140.809,250.778 136.099,256.535 135.636 C 259.448 135.403,259.480 135.304,257.276 133.351 C 243.580 121.212,224.126 113.213,206.055 112.290 C 199.573 111.959,197.630 111.906,195.703 112.003 M277.401 161.230 C 278.460 170.752,276.574 183.529,272.458 194.727 C 270.356 200.442,267.711 207.907,262.697 222.266 C 258.648 233.863,256.201 240.829,254.122 246.680 C 252.900 250.117,251.142 255.127,250.215 257.813 C 249.288 260.498,247.366 265.907,245.944 269.831 C 242.862 278.341,242.894 278.037,245.215 276.693 C 262.442 266.718,277.161 247.781,283.726 227.148 C 285.650 221.099,286.042 219.716,286.157 218.555 C 286.220 217.910,286.542 215.625,286.870 213.477 C 289.446 196.642,286.729 177.968,279.456 162.504 C 277.285 157.888,277.011 157.718,277.401 161.230 M117.624 165.723 C 99.882 209.375,117.322 259.172,157.478 279.521 C 160.197 280.898,160.268 280.789,158.946 277.246 C 158.285 275.474,156.900 271.650,155.867 268.750 C 154.835 265.850,153.197 261.279,152.228 258.594 C 151.259 255.908,149.118 249.932,147.470 245.313 C 145.823 240.693,144.203 236.211,143.870 235.352 C 143.538 234.492,142.865 232.646,142.375 231.250 C 140.837 226.872,137.206 216.705,136.306 214.258 C 135.359 211.683,134.589 209.525,128.158 191.406 C 125.756 184.639,123.546 178.486,123.248 177.734 C 122.950 176.982,121.772 173.689,120.630 170.416 C 118.352 163.883,118.364 163.902,117.624 165.723 M200.391 208.913 C 200.391 209.174,199.614 211.538,198.664 214.166 C 197.714 216.795,195.323 223.604,193.351 229.297 C 187.838 245.212,184.572 254.596,183.429 257.813 C 182.856 259.424,181.623 262.939,180.690 265.625 C 179.756 268.311,178.697 271.299,178.336 272.266 C 177.975 273.232,177.358 274.990,176.965 276.172 C 176.572 277.354,175.705 279.858,175.039 281.738 C 173.491 286.105,173.487 286.074,175.684 286.668 C 186.854 289.690,198.324 290.395,211.133 288.848 C 215.599 288.309,227.120 285.536,227.799 284.838 C 227.942 284.691,227.646 283.516,227.142 282.227 C 226.638 280.938,225.493 277.773,224.598 275.195 C 223.703 272.617,222.732 269.893,222.440 269.141 C 222.148 268.389,220.512 263.818,218.805 258.984 C 217.097 254.150,215.431 249.492,215.101 248.633 C 214.771 247.773,212.983 242.764,211.128 237.500 C 209.273 232.236,206.529 224.502,205.030 220.313 C 203.531 216.123,202.027 211.904,201.687 210.938 C 201.039 209.094,200.391 208.081,200.391 208.913 " stroke="none" fill="#45a2c2" fill-rule="evenodd"></path></g></svg>