<svg xmlns="http://www.w3.org/2000/svg" width="400" height="400" viewBox="80 100 250 200"><g fill-rule="evenodd"><path d="m188.5 102.8-7.3 1a100.1 100.1 0 0 0-64.8 43.4 99.7 99.7 0 0 0 0 107.8 98.9 98.9 0 0 0 180.9-65.1 97.7 97.7 0 0 0-108.8-87.1m17.6 9.5c18 1 37.5 9 51.2 21 2.2 2 2.1 2.1-.8 2.3-5.7.5-11 5.2-12.5 11.5-1.6 6 .1 12 6.9 23 9.9 16.3 10.6 29 3 50.6a539.9 539.9 0 0 0-9 28.5l-1 3.2c-.7 2.4-1 2.6-1.5.8a8942.6 8942.6 0 0 0-30.7-93.8c0-.2 1.7-.5 3.8-.6 6.3-.5 7.6-.8 8.6-2 1.2-1.4 1.2-3-.2-4.5l-1-1.2-8.7.4c-13.7.7-32 .5-38.6-.5-3.5-.5-5.8 1.6-5 4.5.7 2 1.8 2.5 6.2 2.9l6.2.7 2.7 7.5a1469.7 1469.7 0 0 0 10.3 28.7l.6 1.8-5 14.6-14.7 43.6a17306.4 17306.4 0 0 0-17.8-53.5c-14.9-45-14.1-42.6-13.4-42.9a46 46 0 0 1 5.4-.6c5.4-.4 6.6-1 7.2-3.2.9-3.4-1.4-4.5-8.5-4-7.3.6-23.5 1-24 .7-.8-.5 5.2-8.1 11-14a89.2 89.2 0 0 1 69.3-25.5m73.4 50.2A90.8 90.8 0 0 1 278 241a90.9 90.9 0 0 1-32.9 35.7c-2.3 1.3-2.3 1.6.7-6.9a1046 1046 0 0 0 8.2-23.1l8.6-24.4c5-14.4 7.7-21.9 9.8-27.6a79 79 0 0 0 4.9-33.5c-.4-3.5-.1-3.3 2 1.3m-158.8 8 2.6 7.2 5 13.7a2645.5 2645.5 0 0 0 15.7 44 808.6 808.6 0 0 1 8.3 23.2 2935.2 2935.2 0 0 1 6.7 18.6c1.4 3.6 1.3 3.7-1.4 2.3-40.2-20.3-57.6-70.1-39.9-113.8.8-1.8.8-1.8 3 4.7m81 40.5a3494.3 3494.3 0 0 0 13.5 37.7 884 884 0 0 1 7.3 20.5 289.9 289.9 0 0 1 4.7 13.1c.5 1.3.8 2.5.7 2.6a87.7 87.7 0 0 1-52.1 1.9c-2.2-.6-2.2-.6-.7-5a385.3 385.3 0 0 0 3.3-9.4 465.4 465.4 0 0 0 5.1-14.5 5931.6 5931.6 0 0 0 17-48.9c0-.8.6.2 1.3 2" fill="#f1eeec"/><path d="M193.8 93.4a108 108 0 0 0-100.1 93.7 121.9 121.9 0 0 0 4.5 46.1 106.8 106.8 0 0 0 152.1 61.5 107.2 107.2 0 0 0-56.6-201.3m17.8 9.5A97.7 97.7 0 0 1 297 214.6a100 100 0 0 1-5 19.6 98.9 98.9 0 0 1-177.5 17.3 106 106 0 0 1-11.3-28 99 99 0 0 1 108.4-120.6m-15.8 9.1a90 90 0 0 0-58.9 25.8c-5.8 5.9-11.8 13.5-11 14 .5.3 16.7-.1 24-.7 7-.5 9.4.6 8.5 4-.6 2.2-1.8 2.8-7.2 3.2a46 46 0 0 0-5.4.6c-.7.3-1.5-2 13.4 42.9a17306.4 17306.4 0 0 1 17.8 53.5l14.8-43.6 4.9-14.6-.6-1.8a1258 1258 0 0 0-10.3-28.7 353 353 0 0 0-2.7-7.5l-6.2-.7c-4.4-.4-5.5-1-6.1-2.9-1-3 1.4-5 4.9-4.5 6.7 1 24.9 1.2 38.6.5l8.6-.4 1.1 1.2c1.4 1.5 1.4 3.1.2 4.6-1 1.1-2.3 1.4-8.6 1.9-2 .1-3.8.4-3.8.6l1.7 5.5c13 39.2 28.6 86.5 29 88.3.4 1.8.8 1.6 1.5-.8l1-3.2 3.7-11.9c1.8-6 4.2-13.5 5.3-16.6 7.6-21.6 6.9-34.3-3-50.6-6.8-11-8.5-17-7-23 1.7-6.3 6.9-11 12.6-11.5 3-.2 3-.3.8-2.2a87.2 87.2 0 0 0-61.6-21.4m81.7 49.2a79 79 0 0 1-5 33.5l-9.7 27.6a4757.3 4757.3 0 0 1-16.8 47.5c-3 8.5-3 8.2-.7 6.9a90.5 90.5 0 0 0 41.7-63.2 90.8 90.8 0 0 0-7.4-51c-2.2-4.6-2.5-4.8-2.1-1.3m-159.8 4.5c-17.7 43.7-.3 93.5 39.9 113.8 2.7 1.4 2.8 1.3 1.4-2.3a779.3 779.3 0 0 1-6.7-18.6 5154.6 5154.6 0 0 1-15.9-44.3 2645.5 2645.5 0 0 1-15.7-43.9c-2.2-6.5-2.2-6.5-3-4.7m82.8 43.2-1.7 5.3-5.3 15.1a5931.6 5931.6 0 0 1-18.4 52.4c-1.5 4.4-1.5 4.4.7 5a91 91 0 0 0 52.1-1.9c.1-.1-.2-1.3-.7-2.6a258.4 258.4 0 0 1-4.7-13 817.2 817.2 0 0 1-7.3-20.6 967.6 967.6 0 0 1-10-28.3l-3.4-9.4c-.7-1.8-1.3-2.8-1.3-2" fill="#45a2c2"/></g></svg>