<svg data-name="Layer 1" xmlns="http://www.w3.org/2000/svg" width="1139.17" height="654.54"><circle cx="246.83" cy="521.76" r="59.24" fill="#f2f2f2"/><circle cx="256.46" cy="513.1" r="59.24" fill="#6c63ff"/><path fill="#3f3d56" d="M304.17 447.54h733v2h-733zM683.8 18.65H423.61V13.3H305.65v5.36H44.41a17.6 17.6 0 00-17.6 17.6V392.5a17.6 17.6 0 0017.6 17.6h639.38a17.6 17.6 0 0017.6-17.6V36.25a17.6 17.6 0 00-17.6-17.6z"/><path fill="#6c63ff" d="M50.41 49.75H677.8v353.91H50.41z"/><circle cx="363.57" cy="33.67" r="6.43" fill="#6c63ff"/><path opacity=".1" d="M498.37 403.67H50.41V49.75l447.96 353.92z"/><circle cx="148.57" cy="316.88" r="60.31" fill="#f2f2f2"/><path fill="#3f3d56" d="M509.95 240.62h58.61v12.25h-58.61zM439.1 145.28h200.31v5.25H439.1zM439.1 161.9h200.31v5.25H439.1zM439.1 178.52h200.31v5.25H439.1zM439.1 195.14h200.31v5.25H439.1zM439.1 211.76h200.31v5.25H439.1z"/><path fill="#f2f2f2" d="M614.92 56.93h24.49v24.49h-24.49z"/><path d="M650.78 92.8h-29.74V63.06h29.74zm-28.45-1.3h27.16V64.35h-27.16zM719 397.23h-61.22v-4.41a.87.87 0 00-.88-.87h-20.99a.87.87 0 00-.87.87v4.41H621.9v-4.41a.87.87 0 00-.87-.87h-21a.87.87 0 00-.87.87v4.41h-13.12v-4.41a.87.87 0 00-.87-.87h-21a.87.87 0 00-.87.87v4.41h-13.12v-4.41a.87.87 0 00-.88-.87h-20.99a.87.87 0 00-.87.87v4.41h-13.12v-4.41a.87.87 0 00-.88-.87h-21a.87.87 0 00-.87.87v4.41h-13.12v-4.41a.87.87 0 00-.87-.87h-21a.87.87 0 00-.87.87v4.41H442.6v-4.41a.87.87 0 00-.87-.87H277.28a.87.87 0 00-.87.87v4.41h-13.12v-4.41a.87.87 0 00-.88-.87h-21a.87.87 0 00-.87.87v4.41h-13.12v-4.41a.87.87 0 00-.87-.87h-21a.87.87 0 00-.87.87v4.41h-13.12v-4.41a.87.87 0 00-.87-.87h-21a.87.87 0 00-.87.87v4.41H155.7v-4.41a.87.87 0 00-.88-.87h-20.99a.87.87 0 00-.87.87v4.41h-13.13v-4.41a.87.87 0 00-.87-.87h-21a.87.87 0 00-.87.87v4.41H83.97v-4.41a.87.87 0 00-.87-.87h-21a.87.87 0 00-.87.87v4.41H20.99a21 21 0 00-20.99 21v9.49a21 21 0 0021 20.99h698a21 21 0 0021-21v-9.49a21 21 0 00-21-20.99zM163.17 354.54a76 76 0 1176-76 76.09 76.09 0 01-76 76zm0-150a74 74 0 1074 74 74.08 74.08 0 00-74-74zM586.17 32.54h255v2h-255zM406.17 560.54h733v2h-733zM192.67 652.54h255v2h-255z" fill="#3f3d56"/><path fill="#6c63ff" d="M471 550h28v28h-28z"/><path d="M516 562h-34v-34h34zm-32.52-1.48h31.04v-31.04h-31.04z" fill="#3f3d56"/><path fill="#6c63ff" d="M796 22h28v28h-28z"/><path d="M841 34h-34V0h34zm-32.52-1.48h31.04V1.48h-31.04z" fill="#3f3d56"/><path fill="#6c63ff" d="M1078 550h28v28h-28z"/><path d="M1123 562h-34v-34h34zm-32.52-1.48h31.04v-31.04h-31.04zM1057.17 231.96h-2.38V166.8a37.71 37.71 0 00-37.71-37.72H879.03a37.71 37.71 0 00-37.72 37.72v357.48a37.71 37.71 0 0037.72 37.71h138.05a37.71 37.71 0 0037.71-37.71V278.34h2.38z" fill="#3f3d56"/><path d="M1046.76 169.01v356.96a28.17 28.17 0 01-28.16 28.17H879.88a28.17 28.17 0 01-28.16-28.17V169.01a28.16 28.16 0 0128.16-28.16h16.83a13.38 13.38 0 0012.4 18.43h79.08a13.38 13.38 0 0012.4-18.43h18.01a28.16 28.16 0 0128.16 28.16z" fill="#6c63ff"/><path fill="#3f3d56" d="M928.58 376.22h41.32v12.25h-41.32zM878.62 280.87h141.24v5.25H878.62zM878.62 297.49h141.24v5.25H878.62zM878.62 314.11h141.24v5.25H878.62zM878.62 330.73h141.24v5.25H878.62zM878.62 347.35h141.24v5.25H878.62z"/><path fill="#f2f2f2" d="M929.68 211.18h24.49v24.49h-24.49z"/><path d="M939.06 217.3v29.74h29.74V217.3zm28.45 28.45h-27.16V218.6h27.16z" fill="#3f3d56"/><path d="M1046.76 487.85v38.12a28.17 28.17 0 01-28.16 28.17H879.88a28.17 28.17 0 01-28.16-28.17v-192.2l116.87 92.32 2 1.58 21.74 17.17 2.03 1.61z" opacity=".1"/><circle cx="937.24" cy="498.71" r="43.87" fill="#f2f2f2"/><path d="M320.17 654.54a87 87 0 1187-87 87.1 87.1 0 01-87 87zm0-172a85 85 0 1085 85 85.1 85.1 0 00-85-85zM950.17 532.54a55 55 0 1155-55 55.06 55.06 0 01-55 55zm0-108a53 53 0 1053 53 53.06 53.06 0 00-53-53z" fill="#3f3d56"/></svg>