<svg data-name="Layer 1" xmlns="http://www.w3.org/2000/svg" width="949.65" height="482.32"><path d="M910.32 462.9c-27.64 19.92-63.46 20.92-98.08 18.47-4.84-.34-9.64-.74-14.4-1.17-.02-.01-.06 0-.1-.02l-.67-.05-2.93-.28.23.44.72 1.36-.78-1.36-.24-.4c-8.97-15.61-17.86-31.8-20.13-49.62-2.35-18.5 4.24-39.45 20.53-48.54a32.86 32.86 0 016.74-2.83c.97-.3 1.96-.53 2.96-.74a35.22 35.22 0 0140.95 45.78c13.8-14.16 11.23-37.12 6.47-56.31-4.77-19.2-10.55-40.55-.84-57.79 5.39-9.6 14.88-15.55 25.52-17.94l.98-.2a51.4 51.4 0 0136.93 6.46c20.35 12.83 30.8 37.15 34.2 60.98 5.47 38.34-6.63 81.12-38.06 103.76z" fill="#f2f2f2"/><path d="M901.4 401.45a87.37 87.37 0 01-6.03 24.62 75.87 75.87 0 01-11.78 19.24c-9.93 11.95-23.07 20.93-37.34 26.92a139.9 139.9 0 01-34.01 9.14c-4.84-.34-9.64-.74-14.4-1.17-.02-.01-.06 0-.1-.02l-.67-.05-2.93-.28.23.44.72 1.36-.78-1.36-.24-.4a77.33 77.33 0 0021.67-67.65 78 78 0 00-14.53-33.34c.97-.3 1.96-.53 2.96-.74a80.87 80.87 0 017.37 12.21 79.24 79.24 0 016.84 49.3 81.01 81.01 0 01-20.53 40.4c.93-.06 1.86-.14 2.77-.22 17.29-1.47 34.53-5.18 50.21-12.8a90.43 90.43 0 0033.88-27.79c9.5-13.1 13.68-28.84 14.4-44.85.76-17.14-1.47-34.58-5.38-51.24a215.08 215.08 0 00-18.07-49.23 1.55 1.55 0 01.61-2.04 1.32 1.32 0 01.98-.2 1.15 1.15 0 01.76.64c.99 1.93 1.96 3.86 2.89 5.81a217.52 217.52 0 0117.03 51.08c3.43 17.04 5.27 34.86 3.47 52.22z" fill="#fff"/><path d="M540.48 471.7c14.12 10.17 32.42 10.68 50.1 9.44 2.48-.18 4.93-.38 7.36-.6l.05-.01.34-.03 1.5-.14-.11.22-.37.7.4-.7.12-.2c4.58-7.98 9.12-16.24 10.28-25.35 1.2-9.45-2.17-20.15-10.49-24.8a16.78 16.78 0 00-3.44-1.44c-.5-.15-1-.27-1.51-.38a17.99 17.99 0 00-20.92 23.39c-7.05-7.23-5.74-18.96-3.3-28.77 2.43-9.8 5.38-20.71.42-29.51a19.46 19.46 0 00-13.03-9.17l-.5-.1a26.25 26.25 0 00-18.87 3.3c-10.4 6.55-15.74 18.98-17.47 31.15-2.8 19.58 3.39 41.44 19.44 53z" fill="#f2f2f2"/><path d="M545.04 440.3a44.63 44.63 0 003.08 12.59 38.75 38.75 0 006.02 9.82 49.65 49.65 0 0019.07 13.76 71.46 71.46 0 0017.38 4.67c2.47-.18 4.92-.38 7.35-.6l.05-.01.34-.03 1.5-.14-.11.22-.37.7.4-.7.12-.2a39.5 39.5 0 01-11.08-34.56 39.84 39.84 0 017.43-17.03c-.5-.15-1-.27-1.51-.38a41.3 41.3 0 00-3.77 6.24 40.48 40.48 0 00-3.5 25.18 41.38 41.38 0 0010.5 20.64l-1.42-.11a72.56 72.56 0 01-25.65-6.54 46.2 46.2 0 01-17.3-14.2c-4.85-6.68-6.99-14.73-7.36-22.9a96.69 96.69 0 012.75-26.18 109.87 109.87 0 019.23-25.15.79.79 0 00-.31-1.04.67.67 0 00-.5-.1.58.58 0 00-.4.33c-.5.98-1 1.97-1.47 2.96a111.12 111.12 0 00-8.7 26.1 89.46 89.46 0 00-1.77 26.67z" fill="#fff"/><path d="M164 13.22H17a17.02 17.02 0 00-17 17v231a17.02 17.02 0 0017 17h147a17.02 17.02 0 0017-17v-231a17.02 17.02 0 00-17-17zm15 248a15.02 15.02 0 01-15 15H17a15.02 15.02 0 01-15-15v-231a15.02 15.02 0 0115-15h147a15.02 15.02 0 0115 15zM479 278.22H332a17.02 17.02 0 01-17-17v-231a17.02 17.02 0 0117-17h147a17.02 17.02 0 0117 17v231a17.02 17.02 0 01-17 17zm-147-263a15.02 15.02 0 00-15 15v231a15.02 15.02 0 0015 15h147a15.02 15.02 0 0015-15v-231a15.02 15.02 0 00-15-15zM268 147.22h-61a1 1 0 010-2h61a1 1 0 010 2z" fill="#3f3d56"/><path d="M255 174.65a1 1 0 01-.6-1.8l31.82-24.24a3 3 0 000-4.77l-31.83-24.25a1 1 0 011.22-1.59l31.82 24.25a5 5 0 010 7.95l-31.82 24.24a1 1 0 01-.6.2zM582 147.22h-61a1 1 0 010-2h61a1 1 0 010 2z" fill="#3f3d56"/><path d="M569 174.65a1 1 0 01-.6-1.8l31.82-24.24a3 3 0 000-4.77l-31.83-24.25a1 1 0 011.22-1.59l31.82 24.25a5 5 0 010 7.95l-31.82 24.24a1 1 0 01-.6.2z" fill="#3f3d56"/><path d="M423.5 106.72h-35a8.5 8.5 0 01-8.5-8.5v-34a8.5 8.5 0 018.5-8.5h35a8.51 8.51 0 018.5 8.5v34a8.5 8.5 0 01-8.5 8.5z" fill="#6c63ff"/><path d="M430 106.22a1 1 0 01-.7-.29l-48-48a1 1 0 111.4-1.41l48 48a1 1 0 01-.7 1.7z" fill="#fff"/><path d="M382 106.22a1 1 0 01-.7-1.7l48-48a1 1 0 111.4 1.41l-48 48a1 1 0 01-.7.3z" fill="#fff"/><path d="M438 159.22h-65a12.5 12.5 0 010-25h65a12.5 12.5 0 010 25zm-65-23a10.5 10.5 0 000 21h65a10.5 10.5 0 000-21zM438 197.22h-65a12.5 12.5 0 010-25h65a12.5 12.5 0 010 25zm-65-23a10.5 10.5 0 000 21h65a10.5 10.5 0 000-21zM438 235.22h-65a12.5 12.5 0 010-25h65a12.5 12.5 0 010 25zm-65-23a10.5 10.5 0 000 21h65a10.5 10.5 0 000-21zM780.83.23L635.82 24.3a17.02 17.02 0 00-14 19.55l37.83 227.89a17.02 17.02 0 0019.55 13.98l145.02-24.07a17.02 17.02 0 0013.99-19.55L800.39 14.22A17.02 17.02 0 00780.83.23zm55.4 242.2a15.02 15.02 0 01-12.34 17.25l-145.01 24.07a15.02 15.02 0 01-17.26-12.34L623.8 43.53a15.02 15.02 0 0112.34-17.26L781.16 2.2a15.02 15.02 0 0117.25 12.35z" fill="#3f3d56"/><path d="M755.29 93.67l-64.13 10.65a12.5 12.5 0 01-4.09-24.67l64.12-10.64a12.5 12.5 0 014.1 24.66zm-67.9-12.04a10.5 10.5 0 003.45 20.71l64.12-10.64a10.5 10.5 0 00-3.44-20.72zM762.82 139.05l-64.13 10.65a12.5 12.5 0 11-4.09-24.67l64.12-10.64a12.5 12.5 0 014.1 24.66zm-67.9-12.04a10.5 10.5 0 003.45 20.71l64.12-10.64a10.5 10.5 0 00-3.44-20.72zM770.35 184.43l-64.12 10.64a12.5 12.5 0 11-4.1-24.66l64.13-10.64a12.5 12.5 0 014.09 24.66zm-67.89-12.04a10.5 10.5 0 103.44 20.71l64.12-10.64a10.5 10.5 0 10-3.44-20.72zM777.88 229.81l-64.12 10.64a12.5 12.5 0 01-4.1-24.66l64.13-10.64a12.5 12.5 0 014.09 24.66zm-67.89-12.05a10.5 10.5 0 103.44 20.72l64.12-10.64a10.5 10.5 0 00-3.44-20.72z" fill="#ccc"/><path d="M801.6 27.6L625 56.9a1 1 0 11-.32-1.97l176.58-29.3a1 1 0 11.33 1.96z" fill="#3f3d56"/><circle cx="644.19" cy="38.11" r="7" fill="#6c63ff"/><path d="M783.62 10.92l-19.73 3.27a1 1 0 01-.33-1.97l19.73-3.27a1 1 0 01.33 1.97zM784.6 16.84l-19.73 3.27a1 1 0 01-.33-1.97l19.73-3.28a1 1 0 01.33 1.98zM785.58 22.76l-19.73 3.27a1 1 0 11-.32-1.97l19.73-3.28a1 1 0 11.32 1.98z" fill="#3f3d56"/><path d="M128 163.72H53a8.5 8.5 0 01-8.5-8.5v-76a8.5 8.5 0 018.5-8.5h75a8.51 8.51 0 018.5 8.5v76a8.5 8.5 0 01-8.5 8.5z" fill="#6c63ff"/><path d="M122.5 220.22h-65a12.5 12.5 0 110-25h65a12.5 12.5 0 110 25zm-65-23a10.5 10.5 0 100 21h65a10.5 10.5 0 100-21z" fill="#3f3d56"/><path d="M134.5 162.22a1 1 0 01-.7-.29l-88-88a1 1 0 111.4-1.41l88 88a1 1 0 01-.7 1.7z" fill="#fff"/><path d="M46.5 162.22a1 1 0 01-.7-1.7l88-88a1 1 0 111.4 1.41l-88 88a1 1 0 01-.7.3z" fill="#fff"/><path d="M819.05 264.41a10.74 10.74 0 00-8.95-13.83l-51.33-59.98-11.97 12.57 51.13 57.51a10.8 10.8 0 0021.12 3.73z" fill="#a0616a"/><path d="M773.64 203.24l-18.35 13.4a4.5 4.5 0 01-6.64-1.53l-10.54-20.06a12.5 12.5 0 0120.22-14.69l15.86 16.08a4.5 4.5 0 01-.55 6.8z" fill="#6c63ff"/><circle cx="738.23" cy="138.6" r="24.56" fill="#a0616a"/><path d="M748.9 249.4a4.56 4.56 0 01-.76-.05l-43.1-7.26a4.5 4.5 0 01-3.75-4.37c-.13-9.85.61-34.74 10.27-52.87a26.5 26.5 0 0149.2 18.38 393 393 0 00-7.4 42.21 4.5 4.5 0 01-4.46 3.97z" fill="#2f2e41"/><path d="M658.55 168.54a10.53 10.53 0 01.24 1.64l42.96 24.78 10.44-6.01 11.13 14.57-17.45 12.44a8 8 0 01-9.6-.23l-44.3-34.95a10.5 10.5 0 116.58-12.24z" fill="#a0616a"/><path d="M702.34 192.48a4.5 4.5 0 012.2-3.02l19.72-11.02a12.5 12.5 0 0115.33 19.74l-15.72 16.32a4.5 4.5 0 01-6.8-.37l-13.89-18a4.5 4.5 0 01-.84-3.65z" fill="#6c63ff"/><path fill="#a0616a" d="M681.54 469.69h-12.26l-2.89-47.14 15.15-.15v47.29z"/><path d="M684.66 481.57h-39.53v-.5a15.39 15.39 0 0115.39-15.38h24.14z" fill="#2f2e41"/><path fill="#a0616a" d="M798.54 469.69h-12.26l-5.83-47.29h18.09v47.29z"/><path d="M801.66 481.57h-39.53v-.5a15.39 15.39 0 0115.39-15.38h24.14zM784.6 445.17a4.52 4.52 0 01-4.25-3.02l-39.07-111.62a2.5 2.5 0 00-4.36-.68l-38.11 50.82a3.53 3.53 0 00-.62 1.33l-12.14 54.18a4.5 4.5 0 01-4.19 3.51l-14.54.66a4.45 4.45 0 01-3.4-1.32 4.5 4.5 0 01-1.3-3.4l2.53-49.45a115.4 115.4 0 0112.1-45.98 259.34 259.34 0 0027.14-102.17l.03-.56 44.75 7.12 6.72 9.3a128.63 128.63 0 009.73 12.02c8.55 9.28 11.12 21.68 11.77 30.46a253.55 253.55 0 004.57 32.09l22.2 109.06a4.5 4.5 0 01-3.77 5.63l-15.21 1.98a4.42 4.42 0 01-.58.04zM765.4 121.55a108.93 108.93 0 01-4.31-18.14c-.3-3.59.63-7.45 3.24-9.92 4.89-4.63 13.2-2.43 18.3 1.96 7.4 6.33 11.08 16.06 12.47 25.7s.78 19.42 1.11 29.15 1.73 19.72 6.69 28.1 14.16 14.8 23.86 14.08a16.8 16.8 0 0010.52-4.45 12.2 12.2 0 003.66-10.59c4.96 8.89 2.44 20.92-4.95 27.9s-18.78 8.96-28.51 5.98-17.73-10.45-22.52-19.43-6.53-19.36-6.28-29.53c.2-7.8 1.53-15.68.2-23.38s-6.13-15.52-13.73-17.33z" fill="#2f2e41"/><path d="M731.26 131.68c-1.3 4.33-6.25 7-10.7 6.26s-8.13-4.4-9.48-8.71a17.94 17.94 0 011.4-13.15 20.48 20.48 0 0111.71-10.44 16.81 16.81 0 0115.3 2.44 5.62 5.62 0 013.92-4.1 10.74 10.74 0 015.9.08 24.3 24.3 0 0113.52 9.84 39.54 39.54 0 016.13 15.8c1.5 8.47.95 17.72-3.8 24.89s-14.49 11.4-22.38 7.98c-.5-2.52.67-5.05 2.02-7.23s2.95-4.3 3.46-6.82-.47-5.58-2.9-6.4c-2.07-.7-4.28.43-6.46.57a7.08 7.08 0 01-6.8-10.2z" fill="#2f2e41"/><path d="M911.81 482.22h-381a1 1 0 010-2h381a1 1 0 010 2z" fill="#ccc"/></svg>