<svg data-name="Layer 1" xmlns="http://www.w3.org/2000/svg" width="1012" height="794"><path d="M329.31 196.14L209.38 295.6a54.31 54.31 0 11-83.52 69.26L18.33 454.03 190.7 661.86l310.98-257.9zM1012 497.26C1012 620.1 938.97 663 848.9 663S685.77 620.1 685.77 497.26s163.11-279.1 163.11-279.1S1012 374.41 1012 497.25z" fill="#f2f2f2"/><path fill="#3f3d56" d="M842.95 644.2l1.67-102.8 69.52-127.19-69.26 111.06.75-46.23 47.92-92.01-47.72 79.78 1.35-83.14 51.3-73.25-51.09 60.18.85-152.45-5.3 201.81.43-8.32-52.16-79.85 51.32 95.83-4.86 92.85-.14-2.46-60.14-84.03 59.96 92.73-.61 11.62-.1.17.04.95-12.33 235.58h16.48l1.97-121.68 59.8-92.5-59.65 83.35z"/><ellipse cx="707" cy="777" rx="228" ry="17" fill="#3f3d56"/><path fill="#3f3d56" d="M692 0h36v782h-36z"/><path d="M914.47 749.11c0 22.47-13.35 30.31-29.83 30.31h-1.14c-.77-.02-1.52-.06-2.27-.11-14.87-1.05-26.42-9.3-26.42-30.2 0-21.62 27.63-48.91 29.7-50.93l.13-.12s29.83 28.58 29.83 51.05z" fill="#6c63ff"/><path d="M883.55 775.99l10.91-15.25-10.93 16.92-.03 1.75c-.77-.01-1.52-.05-2.27-.1l1.18-22.48-.01-.18.02-.03.1-2.12-10.96-16.96 11 15.37.03.45.89-16.99-9.4-17.53 9.51 14.55.93-35.21v-.12.12l-.16 27.76 9.35-11-9.38 13.4-.25 15.2 8.73-14.6-8.77 16.84-.13 8.45 12.66-20.3-12.71 23.25z" fill="#3f3d56"/><path d="M649.23 732.29l-6.39-4.74s-4.22 23.6.5 27.13 22.39 9.43 22.39 16.5 40.06 16.5 41.24 5.9-3.53-16.5-3.53-16.5-18.86-18.86-21.22-22.4-8.25-10.6-8.25-10.6z" fill="#2f2e41"/><path d="M743.5 438.85l-.48 2.94-1.14 7c-4.95 30.2-19.39 119.12-18.41 122.05 1.18 3.54 9.43 16.5 0 20.03-.9.35-1.89 1.45-2.93 3.2a68.5 68.5 0 00-4.99 11.76c-5.62 16.3-11.63 42.41-15.1 60.49-1.53 7.94-2.56 14.33-2.87 17.68a9.61 9.61 0 00-.04 2.33c1.18 4.71-7.07 21.21-10.6 25.93s-9.43 9.42-8.25 14.14-29.46 17.67-33 9.43-3.53-12.97-4.71-15.32-2.36-18.86 3.53-21.22 2.36-43.6 8.25-51.85c1.97-2.74 4.98-12.04 8.12-23.23 1.24-4.38 2.49-9.05 3.71-13.73 4.98-19.17 9.38-38.46 9.38-38.46l-1.17-137.88 64.81-8.25 1.66 3.67 3.31 7.27zM747.04 665.12s9.43-9.43 14.14 0 9.43 45.96 17.68 54.2 18.85 49.5 7.07 51.86-24.75-3.54-25.93-10.6-25.92-43.61-25.92-47.15 16.5-16.5 16.5-16.5z" fill="#2f2e41"/><path d="M602.09 374.04s15.32 137.88 18.85 150.84 22.4 62.46 28.29 70.7 43.6 75.43 48.31 78.97 14.15 12.96 14.15 12.96 17.67 17.68 20.03 21.21 22.39-7.07 23.57-14.14-1.18-18.86-2.36-23.57 2.36-11.78-1.18-15.32-21.2-21.21-21.2-29.46-30.65-56.57-42.43-67.17-9.43-28.29-9.43-28.29V458.9l64.81-20.04s-3.53-56.56-11.78-56.56-116.67-18.86-129.63-8.25z" fill="#2f2e41"/><circle cx="697.54" cy="138.35" r="38.89" fill="#9f616a"/><path d="M684.58 168.99s-4.71 17.67-10.6 22.39 15.31 24.74 15.31 24.74l40.07 2.36 7.07-22.39s-12.96-25.93-9.42-42.42-42.43 15.32-42.43 15.32z" fill="#9f616a"/><path d="M668.08 189.02s10.6 1.18 12.97 4.71 18.85 14.14 31.81 11.79 21.22-5.9 23.57-4.72 7.07 25.93 7.07 25.93l-12.96 37.71 2.36 103.7 3.53 28.29s7.07-9.43-21.2-3.54-64.82-4.71-76.6-5.89-31.83-4.71-33-11.78 3.53-33 3.53-33L628 263.26l11.79-42.42z" fill="#3f3d56"/><path d="M679.23 183.7s-9.97-5.29-13.5-.57-48.32 11.78-48.32 15.32-9.43 98.99-7.07 107.24-4.72 17.67-4.72 17.67l-8.25 35.36s-22.39 67.17-12.96 69.53 17.68 0 21.21 0 2.36-44.78 11.79-56.57 22.39-41.25 24.75-47.14 31.81-87.2 30.64-96.63 6.43-44.2 6.43-44.2zM728.18 189.02s9.43 0 10.61 2.36 12.96 17.67 17.68 21.2 21.2 18.86 21.2 22.4-34.17 29.46-34.17 29.46-14.14 69.53-7.07 93.1 17.68 80.13 12.97 83.67-15.32 4.71-15.32 0-7.07-55.39-12.97-66-23.57-77.77-16.5-96.63 23.57-89.56 23.57-89.56z" fill="#d0cde1"/><path d="M572.63 305.69s-1.18 36.53 11.78 55.38 21.21 40.07 21.21 40.07 21.22-5.89 24.75-12.96 25.93-1.18 25.93-3.54-27.1-14.14-29.46-16.5-10.61-2.35-15.32-7.07-5.9-15.32-5.9-15.32l-4.71-30.64z" fill="#9f616a"/><path d="M670.76 114.37c-3-.27-6.08-.57-8.72-2-5.93-3.2-7.5-12.3-2.99-17.29a22.34 22.34 0 014.14-3.33l8.96-6.1c3.96-2.7 8.02-5.44 12.64-6.7 4.18-1.16 8.6-1.04 12.92-.77 8.4.52 16.85 1.6 24.75 4.5s15.27 7.75 20.05 14.67c7.59 10.98 7.7 25.78 3.51 38.45s-12.1 23.7-19.93 34.5l-4.05-19.79c-.37-1.76-.83-3.7-2.3-4.74-3.64-2.59-8.1 2.74-12.58 2.7-2.87-.02-5.28-2.39-6.37-5.05s-1.16-5.6-1.41-8.46c-.54-6.07-2.66-14.5-8.4-17.85-5.35-3.12-14.2-2.2-20.22-2.74z" fill="#2f2e41"/><path d="M672.94 439.8s3.98 115.13 6.34 118.67 0-119.03 0-119.03z" opacity=".1"/><path d="M626.84 198.45h-9.43s-40.07 54.2-35.36 57.74 0 12.96 0 12.96l-9.42 17.68s-11.79 10.6-8.25 12.96 8.25 11.79 8.25 11.79 23.57-3.54 30.64 10.6l15.28-19.29z" fill="#d0cde1"/><path d="M734.08 299.8s-25.93 1.17-55.4-17.68l-29.45-12.97s-25.93-40.06-28.29-33 3.54 21.22 3.54 21.22S588.92 273.83 588 276s19.98-3.31 19.98-3.31-3.53 22.4 16.5 23.57 25.93-3.54 25.93-3.54 84.84 70.71 98.99 48.32-15.32-41.25-15.32-41.25z" fill="#9f616a"/><path d="M764.72 230.27l12.96 4.71v35.35l4.71 7.07s-1.18 14.15-4.71 17.68-10.6 2.36-8.25 10.6a44.67 44.67 0 011.18 16.5s-21.21 27.11-22.4 23.57-17.67-47.13-20.03-47.13 23.57-68.35 23.57-68.35z" fill="#d0cde1"/><path d="M609.75 408.8s-12.19-11.78-6.1-12.37 27.31-12.38 30.85-6.48-24.75 18.85-24.75 18.85z" fill="#2f2e41"/><path d="M423.72 755A226.92 226.92 0 00456 638c0-125.92-102.08-228-228-228S0 512.08 0 638a226.92 226.92 0 0032.28 117z" fill="#3f3d56"/><circle cx="228" cy="623" r="22" fill="#6c63ff"/><circle cx="53" cy="659" r="11" fill="#6c63ff"/><circle cx="59.45" cy="563.73" r="11" fill="#6c63ff"/><circle cx="114.06" cy="485.39" r="11" fill="#6c63ff"/><circle cx="201.21" cy="446.36" r="11" fill="#6c63ff"/><circle cx="296.01" cy="457.79" r="11" fill="#6c63ff"/><circle cx="371.39" cy="516.41" r="11" fill="#6c63ff"/><circle cx="405.8" cy="605.49" r="11" fill="#6c63ff"/><circle cx="389.43" cy="699.57" r="11" fill="#6c63ff"/><path fill="none" stroke="#6c63ff" stroke-miterlimit="10" stroke-width="4" d="M228 623l113-86"/><circle cx="332.54" cy="198.35" r="14.76" fill="none" stroke="#3f3d56" stroke-miterlimit="10" stroke-width="2"/><circle cx="416.54" cy="370.35" r="14.76" fill="#3f3d56"/><circle cx="168.22" cy="331.17" r="42.78" fill="#f2f2f2"/></svg>