<svg id="Layer_1" data-name="Layer 1" xmlns="http://www.w3.org/2000/svg" viewBox="0 0 800 800"><defs><style>.cls-3{fill:none;stroke:#fff;stroke-miterlimit:10;stroke-width:3px}.cls-4{fill:#fff}</style></defs><circle cx="400" cy="400" r="372.5" fill="#f47a21"/><g opacity=".12"><path class="cls-3" d="M547 109l-278.1 5.98"/><circle class="cls-4" cx="547" cy="109" r="11.28" transform="rotate(-48.43 547.04 109)"/><path class="cls-4" d="M268.65 103.71a11.28 11.28 0 1011.52 11 11.28 11.28 0 00-11.52-11z"/><path class="cls-3" d="M407.95 161.13L268.9 114.98"/><path class="cls-4" d="M411.5 150.43a11.28 11.28 0 11-14.26 7.15 11.27 11.27 0 0114.26-7.15zM272.45 104.28a11.28 11.28 0 107.15 14.26 11.28 11.28 0 00-7.15-14.26z"/><path class="cls-3" d="M547 109l-73.87 35.04"/><path class="cls-4" d="M542.17 98.81a11.28 11.28 0 11-5.36 15 11.28 11.28 0 015.36-15zM468.29 133.85a11.28 11.28 0 1015 5.36 11.28 11.28 0 00-15-5.36z"/><path class="cls-3" d="M407.95 128.66L547 109"/><path class="cls-4" d="M409.53 139.82a11.28 11.28 0 119.59-12.74 11.27 11.27 0 01-9.59 12.74zM548.58 120.17a11.28 11.28 0 10-12.75-9.59 11.28 11.28 0 0012.75 9.59z"/><path class="cls-3" d="M268.9 114.98l139.05 13.68"/><path class="cls-4" d="M267.79 126.21a11.28 11.28 0 1112.33-10.12 11.28 11.28 0 01-12.33 10.12zM406.84 139.88a11.28 11.28 0 10-10.12-12.33 11.28 11.28 0 0010.12 12.33z"/><path class="cls-3" d="M473.13 144.04l-65.18-15.38"/><path class="cls-4" d="M475.72 133.06a11.28 11.28 0 11-13.57 8.39 11.29 11.29 0 0113.57-8.39zM410.54 117.68a11.28 11.28 0 108.39 13.57 11.28 11.28 0 00-8.39-13.57z"/><path class="cls-3" d="M407.95 161.13v-32.47"/><path class="cls-4" d="M419.23 161.13A11.28 11.28 0 11408 149.85a11.28 11.28 0 0111.23 11.28zM419.23 128.66A11.28 11.28 0 10408 139.94a11.28 11.28 0 0011.23-11.28z"/><path class="cls-3" d="M473.13 144.04l-65.91 20.51"/><path class="cls-4" d="M469.78 133.27a11.28 11.28 0 11-7.42 14.12 11.28 11.28 0 017.42-14.12zM403.87 153.78A11.28 11.28 0 10418 161.2a11.29 11.29 0 00-14.13-7.42z"/><path class="cls-3" d="M350.01 361.11l57.94-199.98"/><path class="cls-4" d="M360.84 364.25a11.27 11.27 0 11-7.69-14 11.28 11.28 0 017.69 14zM418.78 164.27a11.28 11.28 0 10-14 7.7 11.27 11.27 0 0014-7.7z"/><path class="cls-3" d="M462.99 438.89l-55.04-277.76"/><path class="cls-4" d="M474.05 436.69a11.28 11.28 0 11-13.25-8.87 11.28 11.28 0 0113.25 8.87zM419 158.94a11.28 11.28 0 10-8.87 13.26 11.27 11.27 0 008.87-13.26z"/><path class="cls-3" d="M464.44 248.3l8.69-104.26"/><path class="cls-4" d="M475.68 249.24a11.28 11.28 0 11-10.3-12.18 11.28 11.28 0 0110.3 12.18zM484.37 145a11.28 11.28 0 10-12.18 10.3 11.28 11.28 0 0012.18-10.3z"/><path class="cls-3" d="M407.95 161.13l56.49 87.17"/><path class="cls-4" d="M398.48 167.27a11.28 11.28 0 1115.6 3.33 11.29 11.29 0 01-15.6-3.33zM455 254.44a11.28 11.28 0 103.33-15.6 11.29 11.29 0 00-3.33 15.6z"/><path class="cls-3" d="M357.25 204.72l50.7-43.59"/><path class="cls-4" d="M364.61 213.27a11.28 11.28 0 111.2-15.91 11.29 11.29 0 01-1.2 15.91zM415.3 169.69a11.28 11.28 0 10-15.9-1.2 11.29 11.29 0 0015.9 1.2z"/><path class="cls-3" d="M350.01 361.11l7.24-156.39"/><path class="cls-4" d="M361.28 361.64a11.28 11.28 0 11-10.75-11.79 11.28 11.28 0 0110.75 11.79zM368.52 205.24A11.28 11.28 0 10356.73 216a11.28 11.28 0 0011.79-10.76z"/><path class="cls-3" d="M462.99 438.89l-112.98-77.78"/><path class="cls-4" d="M469.39 429.59a11.29 11.29 0 11-15.69 2.9 11.29 11.29 0 0115.69-2.9zM356.41 351.82a11.29 11.29 0 102.89 15.69 11.29 11.29 0 00-2.89-15.69z"/><path class="cls-3" d="M464.44 248.3l-1.45 190.59"/><path class="cls-4" d="M453.16 248.22a11.28 11.28 0 1111.19 11.36 11.29 11.29 0 01-11.19-11.36zM451.71 438.8a11.28 11.28 0 1011.37-11.19 11.27 11.27 0 00-11.37 11.19z"/><path class="cls-3" d="M357.25 204.72l-18.83-52.13"/><path class="cls-4" d="M367.86 200.89a11.28 11.28 0 11-14.44-6.78 11.28 11.28 0 0114.44 6.78zM349 148.75a11.28 11.28 0 10-6.78 14.44 11.28 11.28 0 006.78-14.44z"/><path class="cls-3" d="M407.22 161.13l-68.8-8.54"/><path class="cls-4" d="M408.61 149.94a11.28 11.28 0 11-12.58 9.8 11.28 11.28 0 0112.58-9.8zM339.81 141.39a11.28 11.28 0 109.81 12.61 11.28 11.28 0 00-9.81-12.61z"/><path class="cls-3" d="M268.9 114.98l69.52 37.61"/><circle class="cls-4" cx="268.9" cy="114.98" r="11.28" transform="rotate(-36.81 268.89 114.97)"/><path class="cls-4" d="M333.06 162.51a11.28 11.28 0 10-4.56-15.29 11.27 11.27 0 004.56 15.29z"/><path class="cls-3" d="M266 691l278.1-5.98"/><path class="cls-4" d="M266.24 702.28a11.28 11.28 0 1111-11.52 11.29 11.29 0 01-11 11.52zM544.35 696.29a11.28 11.28 0 10-11.52-11 11.28 11.28 0 0011.52 11z"/><path class="cls-3" d="M405.05 638.87l139.05 46.15"/><path class="cls-4" d="M401.5 649.57a11.28 11.28 0 1114.26-7.15 11.27 11.27 0 01-14.26 7.15zM540.55 695.72a11.28 11.28 0 10-7.15-14.26 11.28 11.28 0 007.15 14.26z"/><path class="cls-3" d="M266 691l73.87-35.04"/><path class="cls-4" d="M270.83 701.19a11.28 11.28 0 115.36-15 11.28 11.28 0 01-5.36 15zM344.71 666.15a11.28 11.28 0 10-15-5.36 11.28 11.28 0 0015 5.36z"/><path class="cls-3" d="M405.05 671.34L266 691"/><path class="cls-4" d="M403.47 660.18a11.28 11.28 0 11-9.59 12.74 11.27 11.27 0 019.59-12.74zM264.42 679.83a11.28 11.28 0 1012.75 9.59 11.28 11.28 0 00-12.75-9.59z"/><path class="cls-3" d="M544.1 685.02l-139.05-13.68"/><path class="cls-4" d="M545.21 673.79a11.28 11.28 0 11-12.33 10.12 11.28 11.28 0 0112.33-10.12zM406.16 660.12a11.28 11.28 0 1010.12 12.33 11.28 11.28 0 00-10.12-12.33z"/><path class="cls-3" d="M339.87 655.96l65.18 15.38"/><path class="cls-4" d="M337.28 666.94a11.28 11.28 0 1113.57-8.39 11.29 11.29 0 01-13.57 8.39zM402.46 682.32a11.28 11.28 0 10-8.39-13.57 11.28 11.28 0 008.39 13.57z"/><path class="cls-3" d="M405.05 638.87v32.47"/><path class="cls-4" d="M393.77 638.87a11.28 11.28 0 1111.28 11.28 11.28 11.28 0 01-11.28-11.28z"/><circle class="cls-4" cx="405.05" cy="671.34" r="11.28" transform="rotate(-31.72 405 671.3)"/><path class="cls-3" d="M339.87 655.96l65.18-17.09"/><path class="cls-4" d="M342.73 666.87a11.28 11.28 0 118-13.77 11.28 11.28 0 01-8 13.77zM407.91 649.78a11.28 11.28 0 10-13.77-8 11.28 11.28 0 0013.77 8z"/><path class="cls-3" d="M462.99 438.89l-57.94 199.98"/><path class="cls-4" d="M452.16 435.75a11.27 11.27 0 117.69 14 11.28 11.28 0 01-7.69-14zM394.22 635.73a11.28 11.28 0 1014-7.7 11.27 11.27 0 00-14 7.7z"/><path class="cls-3" d="M350.01 361.11l55.04 277.76"/><path class="cls-4" d="M339 363.31a11.28 11.28 0 1113.25 8.87 11.28 11.28 0 01-13.25-8.87zM394 641.06a11.28 11.28 0 108.87-13.26 11.27 11.27 0 00-8.87 13.26z"/><path class="cls-3" d="M348.56 551.7l-8.69 104.26"/><path class="cls-4" d="M337.32 550.76a11.28 11.28 0 1110.3 12.18 11.28 11.28 0 01-10.3-12.18zM328.63 655a11.28 11.28 0 1012.18-10.3 11.28 11.28 0 00-12.18 10.3z"/><path class="cls-3" d="M405.05 638.87l-56.49-87.17"/><path class="cls-4" d="M414.52 632.73a11.28 11.28 0 11-15.6-3.33 11.29 11.29 0 0115.6 3.33zM358 545.56a11.28 11.28 0 10-3.33 15.6 11.29 11.29 0 003.33-15.6z"/><path class="cls-3" d="M455.75 595.28l-50.7 43.59"/><path class="cls-4" d="M448.39 586.73a11.28 11.28 0 11-1.2 15.91 11.29 11.29 0 011.2-15.91zM397.7 630.32a11.27 11.27 0 1015.9 1.19 11.28 11.28 0 00-15.9-1.19z"/><path class="cls-3" d="M462.99 438.89l-7.24 156.39"/><path class="cls-4" d="M451.72 438.36a11.28 11.28 0 1110.75 11.79 11.28 11.28 0 01-10.75-11.79zM444.48 594.76A11.28 11.28 0 10456.27 584a11.28 11.28 0 00-11.79 10.76z"/><path class="cls-3" d="M350.01 361.11l112.98 77.78"/><path class="cls-4" d="M343.61 370.41a11.29 11.29 0 1115.69-2.9 11.29 11.29 0 01-15.69 2.9zM456.59 448.18a11.29 11.29 0 10-2.89-15.69 11.29 11.29 0 002.89 15.69z"/><path class="cls-3" d="M348.56 551.7l1.45-190.59"/><path class="cls-4" d="M359.84 551.78a11.28 11.28 0 11-11.19-11.36 11.29 11.29 0 0111.19 11.36zM361.29 361.2a11.28 11.28 0 10-11.37 11.19 11.27 11.27 0 0011.37-11.19z"/><path class="cls-3" d="M455.75 595.28l18.83 52.13"/><path class="cls-4" d="M445.14 599.11a11.28 11.28 0 1114.44 6.78 11.28 11.28 0 01-14.44-6.78zM464 651.25a11.28 11.28 0 106.78-14.44 11.28 11.28 0 00-6.78 14.44z"/><path class="cls-3" d="M405.78 638.87l68.8 8.54"/><path class="cls-4" d="M404.39 650.06a11.28 11.28 0 1112.58-9.8 11.28 11.28 0 01-12.58 9.8zM473.19 658.61a11.28 11.28 0 10-9.81-12.61 11.28 11.28 0 009.81 12.61z"/><path class="cls-3" d="M544.1 685.02l-69.52-37.61"/><path class="cls-4" d="M549.47 675.1a11.28 11.28 0 11-15.29 4.55 11.26 11.26 0 0115.29-4.55zM479.94 637.49a11.28 11.28 0 104.56 15.29 11.27 11.27 0 00-4.56-15.29z"/></g><path class="cls-3" d="M575.5 701.63l-347.38-6.21"/><path class="cls-4" d="M575.8 684.71a16.92 16.92 0 11-17.22 16.61 16.94 16.94 0 0117.22-16.61zM228.32 684.15a11.28 11.28 0 1011.08 11.48 11.28 11.28 0 00-11.08-11.48z"/><path class="cls-3" d="M401.81 647.59l-173.69 47.83"/><path class="cls-4" d="M397.32 631.28a16.92 16.92 0 11-11.82 20.8 16.92 16.92 0 0111.82-20.8zM225.12 684.55a11.28 11.28 0 1013.88 7.88 11.28 11.28 0 00-13.88-7.88z"/><path class="cls-3" d="M575.5 701.63l-92.27-36.32"/><path class="cls-4" d="M581.7 685.88a16.92 16.92 0 11-21.94 9.55 16.91 16.91 0 0121.94-9.55zM487.36 654.81a11.28 11.28 0 106.36 14.63 11.29 11.29 0 00-6.36-14.63z"/><path class="cls-3" d="M401.81 681.25l173.69 20.38"/><path class="cls-4" d="M399.84 698.05a16.92 16.92 0 1118.77-14.83 16.91 16.91 0 01-18.77 14.83zM574.19 712.83a11.28 11.28 0 10-9.89-12.52 11.28 11.28 0 009.89 12.52z"/><path class="cls-3" d="M228.12 695.42l173.69-14.17"/><path class="cls-4" d="M229.49 712.29A16.92 16.92 0 11245 694.05a16.92 16.92 0 01-15.51 18.24zM402.73 692.49a11.28 11.28 0 10-12.16-10.32 11.28 11.28 0 0012.16 10.32z"/><path class="cls-3" d="M483.23 665.31l-81.42 15.94"/><path class="cls-4" d="M480 648.7a16.92 16.92 0 11-13.36 19.86A16.93 16.93 0 01480 648.7zM399.64 670.18a11.28 11.28 0 1013.24 8.9 11.29 11.29 0 00-13.24-8.9z"/><path class="cls-3" d="M401.81 647.59v33.66"/><path class="cls-4" d="M384.89 647.59a16.92 16.92 0 1116.92 16.92 16.93 16.93 0 01-16.92-16.92zM390.53 681.25A11.28 11.28 0 10401.81 670a11.28 11.28 0 00-11.28 11.25z"/><path class="cls-3" d="M483.23 665.31l-82.33-21.26"/><path class="cls-4" d="M487.46 648.92a16.92 16.92 0 11-20.61 12.16 16.94 16.94 0 0120.61-12.16zM403.73 633.13a11.28 11.28 0 108.1 13.74 11.28 11.28 0 00-8.1-13.74z"/><path class="cls-3" d="M329.44 440.31l72.37 207.28"/><path class="cls-4" d="M313.46 445.88a16.92 16.92 0 1121.54 10.4 16.93 16.93 0 01-21.54-10.4zM391.16 651.31a11.28 11.28 0 106.93-14.37 11.29 11.29 0 00-6.93 14.37z"/><path class="cls-3" d="M470.56 359.69l-68.75 287.9"/><path class="cls-4" d="M454.11 355.76a16.92 16.92 0 1112.52 20.39 16.91 16.91 0 01-12.52-20.39zM390.84 645a11.28 11.28 0 1013.59-8.35 11.28 11.28 0 00-13.59 8.35z"/><path class="cls-3" d="M472.37 557.23l10.86 108.08"/><path class="cls-4" d="M455.54 558.93a16.92 16.92 0 1118.52 15.14 16.91 16.91 0 01-18.52-15.14zM472 666.43a11.28 11.28 0 1010.1-12.35 11.29 11.29 0 00-10.1 12.35z"/><path class="cls-3" d="M401.81 647.59l70.56-90.36"/><path class="cls-4" d="M415.14 658a16.92 16.92 0 11-2.92-23.74 16.91 16.91 0 012.92 23.74zM481.26 564.18a11.28 11.28 0 10-15.83 1.94 11.29 11.29 0 0015.83-1.94z"/><path class="cls-3" d="M338.48 602.41l63.33 45.18"/><path class="cls-4" d="M328.66 616.19a16.92 16.92 0 1123.6-4 16.93 16.93 0 01-23.6 4zM395.26 656.77a11.28 11.28 0 10-2.63-15.77 11.28 11.28 0 002.63 15.77z"/><path class="cls-3" d="M329.44 440.31l9.04 162.1"/><path class="cls-4" d="M312.55 441.25a16.92 16.92 0 1117.83 15.95 16.92 16.92 0 01-17.83-15.95zM327.22 603a11.28 11.28 0 1010.64-11.89A11.28 11.28 0 00327.22 603z"/><path class="cls-3" d="M470.56 359.69l-141.12 80.62"/><path class="cls-4" d="M462.17 345a16.92 16.92 0 11-6.3 23.09 16.92 16.92 0 016.3-23.09zM323.84 430.51a11.28 11.28 0 1015.39 4.2 11.29 11.29 0 00-15.39-4.2z"/><path class="cls-3" d="M472.37 557.23l-1.81-197.54"/><path class="cls-4" d="M489.29 557.08a16.92 16.92 0 11-17.07-16.76 16.92 16.92 0 0117.07 16.76zM481.84 359.59A11.28 11.28 0 10470.67 371a11.27 11.27 0 0011.17-11.41z"/><path class="cls-3" d="M338.48 602.41l-23.52 54.04"/><path class="cls-4" d="M323 595.66a16.92 16.92 0 118.76 22.26 16.92 16.92 0 01-8.76-22.26zM304.62 652a11.28 11.28 0 1014.85-5.84 11.28 11.28 0 00-14.85 5.84z"/><path class="cls-3" d="M400.9 647.59l-85.94 8.86"/><path class="cls-4" d="M399.17 630.76a16.92 16.92 0 11-15.09 18.56 16.91 16.91 0 0115.09-18.56zM313.81 645.23a11.28 11.28 0 1012.37 10.06 11.29 11.29 0 00-12.37-10.06z"/><path class="cls-3" d="M228.12 695.42l86.84-38.97"/><path class="cls-4" d="M235.05 710.86a16.92 16.92 0 118.5-22.36 16.92 16.92 0 01-8.5 22.36zM319.58 666.74a11.28 11.28 0 10-14.91-5.67 11.28 11.28 0 0014.91 5.67z"/><path class="cls-3" d="M224.5 98.38l347.38 6.2"/><path class="cls-4" d="M224.2 115.29a16.92 16.92 0 1117.22-16.61 16.94 16.94 0 01-17.22 16.61z"/><circle class="cls-4" cx="571.88" cy="104.58" r="11.28" transform="rotate(-8.22 571.75 104.6)"/><path class="cls-3" d="M398.19 152.41l173.69-47.83"/><path class="cls-4" d="M402.68 168.72a16.92 16.92 0 1111.82-20.8 16.92 16.92 0 01-11.82 20.8z"/><circle class="cls-4" cx="571.88" cy="104.58" r="11.28" transform="rotate(-24.5 567.32 107.31)"/><path class="cls-3" d="M224.5 98.38l92.27 36.31"/><path class="cls-4" d="M218.3 114.12a16.92 16.92 0 1121.94-9.55 16.91 16.91 0 01-21.94 9.55zM312.64 145.19a11.28 11.28 0 10-6.36-14.63 11.29 11.29 0 006.36 14.63z"/><path class="cls-3" d="M398.19 118.75L224.5 98.38"/><path class="cls-4" d="M400.16 102a16.92 16.92 0 11-18.77 14.83A16.91 16.91 0 01400.16 102zM225.81 87.17a11.28 11.28 0 109.89 12.52 11.28 11.28 0 00-9.89-12.52z"/><path class="cls-3" d="M571.88 104.58l-173.69 14.17"/><path class="cls-4" d="M570.51 87.71A16.92 16.92 0 11555 106a16.92 16.92 0 0115.51-18.29zM397.27 107.51a11.28 11.28 0 1012.16 10.32 11.28 11.28 0 00-12.16-10.32z"/><path class="cls-3" d="M316.77 134.69l81.42-15.94"/><path class="cls-4" d="M320 151.3a16.92 16.92 0 1113.36-19.86A16.93 16.93 0 01320 151.3zM400.36 129.82a11.28 11.28 0 10-13.24-8.9 11.29 11.29 0 0013.24 8.9z"/><path class="cls-3" d="M398.19 152.41v-33.66"/><path class="cls-4" d="M415.11 152.41a16.92 16.92 0 11-16.92-16.92 16.93 16.93 0 0116.92 16.92zM409.47 118.75A11.28 11.28 0 10398.19 130a11.28 11.28 0 0011.28-11.25z"/><path class="cls-3" d="M316.77 134.69l81.42 17.72"/><path class="cls-4" d="M313.18 151.23a16.92 16.92 0 1120.13-12.94 16.92 16.92 0 01-20.13 12.94zM395.79 163.43a11.28 11.28 0 10-8.62-13.43 11.28 11.28 0 008.62 13.43z"/><path class="cls-3" d="M470.56 359.69l-72.37-207.28"/><path class="cls-4" d="M486.54 354.12a16.92 16.92 0 11-21.54-10.4 16.93 16.93 0 0121.54 10.4zM408.84 148.69a11.28 11.28 0 10-6.93 14.37 11.29 11.29 0 006.93-14.37z"/><path class="cls-3" d="M329.44 440.31l68.75-287.9"/><path class="cls-4" d="M345.89 444.24a16.92 16.92 0 11-12.52-20.39 16.91 16.91 0 0112.52 20.39zM409.16 155a11.28 11.28 0 10-13.59 8.35 11.28 11.28 0 0013.59-8.35z"/><path class="cls-3" d="M327.63 242.77l-10.86-108.08"/><path class="cls-4" d="M344.46 241.07a16.92 16.92 0 11-18.52-15.14 16.91 16.91 0 0118.52 15.14zM328 133.57a11.28 11.28 0 10-10.1 12.35 11.29 11.29 0 0010.1-12.35z"/><path class="cls-3" d="M398.19 152.41l-70.56 90.36"/><path class="cls-4" d="M384.86 142a16.92 16.92 0 112.92 23.75 16.91 16.91 0 01-2.92-23.75zM318.74 235.82a11.28 11.28 0 1015.83-1.94 11.28 11.28 0 00-15.83 1.94z"/><path class="cls-3" d="M461.52 197.59l-63.33-45.18"/><path class="cls-4" d="M471.34 183.81a16.92 16.92 0 11-23.6 3.95 16.93 16.93 0 0123.6-3.95zM404.74 143.23a11.28 11.28 0 102.63 15.77 11.28 11.28 0 00-2.63-15.77z"/><path class="cls-3" d="M470.56 359.69l-9.04-162.1"/><path class="cls-4" d="M487.45 358.75a16.92 16.92 0 11-17.83-15.95 16.92 16.92 0 0117.83 15.95zM472.78 197a11.28 11.28 0 10-10.64 11.89A11.28 11.28 0 00472.78 197z"/><path class="cls-3" d="M329.44 440.31l141.12-80.62"/><path class="cls-4" d="M337.83 455a16.92 16.92 0 116.3-23.09 16.92 16.92 0 01-6.3 23.09zM476.16 369.49a11.28 11.28 0 10-15.39-4.2 11.29 11.29 0 0015.39 4.2z"/><path class="cls-3" d="M327.63 242.77l1.81 197.54"/><path class="cls-4" d="M310.71 242.92a16.92 16.92 0 1117.07 16.76 16.92 16.92 0 01-17.07-16.76zM318.16 440.41A11.28 11.28 0 10329.33 429a11.27 11.27 0 00-11.17 11.41z"/><path class="cls-3" d="M461.52 197.59l23.52-54.04"/><path class="cls-4" d="M477 204.34a16.92 16.92 0 11-8.76-22.26 16.92 16.92 0 018.76 22.26zM495.38 148.05a11.28 11.28 0 10-14.85 5.84 11.28 11.28 0 0014.85-5.84z"/><path class="cls-3" d="M399.1 152.41l85.94-8.86"/><path class="cls-4" d="M400.83 169.24a16.92 16.92 0 1115.09-18.56 16.91 16.91 0 01-15.09 18.56zM486.19 154.77a11.28 11.28 0 10-12.37-10.06 11.29 11.29 0 0012.37 10.06z"/><path class="cls-3" d="M571.88 104.58l-86.84 38.97"/><path class="cls-4" d="M565 89.14a16.92 16.92 0 11-8.5 22.36 16.92 16.92 0 018.5-22.36zM480.42 133.26a11.28 11.28 0 1014.91 5.67 11.28 11.28 0 00-14.91-5.67z"/></svg>