<svg width="266" height="30" viewBox="0 0 266 30" fill="none" xmlns="http://www.w3.org/2000/svg">
<path fill-rule="evenodd" clip-rule="evenodd" d="M0.685085 25.6962C-0.228362 26.6807 -0.228362 28.277 0.685085 29.2616C1.59853 30.2461 3.07952 30.2461 3.99297 29.2616L27.1481 4.30381C28.0616 3.31926 28.0616 1.72297 27.1481 0.738417C26.2347 -0.24614 24.7537 -0.246139 23.8403 0.738417L0.685085 25.6962ZM27.1481 25.6962C26.2346 26.6807 26.2346 28.277 27.1481 29.2616C28.0615 30.2461 29.5425 30.2461 30.4559 29.2616L53.6111 4.30381C54.5246 3.31926 54.5246 1.72297 53.6111 0.738417C52.6977 -0.24614 51.2167 -0.246139 50.3032 0.738417L27.1481 25.6962ZM53.611 29.2616C52.6976 28.277 52.6976 26.6807 53.611 25.6962L76.7662 0.738417C77.6797 -0.246139 79.1606 -0.24614 80.0741 0.738417C80.9875 1.72297 80.9875 3.31926 80.0741 4.30381L56.9189 29.2616C56.0055 30.2461 54.5245 30.2461 53.611 29.2616ZM80.074 25.6962C79.1606 26.6807 79.1606 28.277 80.074 29.2616C80.9874 30.2461 82.4684 30.2461 83.3819 29.2616L106.537 4.30381C107.451 3.31926 107.451 1.72297 106.537 0.738417C105.624 -0.24614 104.143 -0.246139 103.229 0.738417L80.074 25.6962ZM106.537 29.2616C105.624 28.277 105.624 26.6807 106.537 25.6962L129.692 0.738417C130.606 -0.246139 132.087 -0.24614 133 0.738417C133.913 1.72297 133.913 3.31926 133 4.30381L109.845 29.2616C108.931 30.2461 107.45 30.2461 106.537 29.2616ZM133 25.6962C132.087 26.6807 132.087 28.277 133 29.2616C133.913 30.2461 135.394 30.2461 136.308 29.2616L159.463 4.30381C160.376 3.31926 160.376 1.72297 159.463 0.738417C158.55 -0.24614 157.069 -0.246139 156.155 0.738417L133 25.6962ZM159.463 29.2616C158.549 28.277 158.549 26.6807 159.463 25.6962L182.618 0.738417C183.532 -0.246139 185.013 -0.24614 185.926 0.738417C186.839 1.72297 186.839 3.31926 185.926 4.30381L162.771 29.2616C161.857 30.2461 160.376 30.2461 159.463 29.2616ZM185.926 25.6962C185.012 26.6807 185.012 28.277 185.926 29.2616C186.839 30.2461 188.32 30.2461 189.234 29.2616L212.389 4.30381C213.302 3.31926 213.302 1.72297 212.389 0.738417C211.476 -0.24614 209.995 -0.246139 209.081 0.738417L185.926 25.6962ZM212.389 29.2616C211.475 28.277 211.475 26.6807 212.389 25.6962L235.544 0.738417C236.457 -0.246139 237.938 -0.24614 238.852 0.738417C239.765 1.72297 239.765 3.31926 238.852 4.30381L215.697 29.2616C214.783 30.2461 213.302 30.2461 212.389 29.2616ZM238.852 25.6962C237.938 26.6807 237.938 28.277 238.852 29.2616C239.765 30.2461 241.246 30.2461 242.16 29.2616L265.315 4.30381C266.228 3.31926 266.228 1.72297 265.315 0.738417C264.401 -0.24614 262.92 -0.246139 262.007 0.738417L238.852 25.6962Z" fill="#262626"/>
</svg>
