<svg width="125" height="46" viewBox="0 0 125 46" fill="none" xmlns="http://www.w3.org/2000/svg">
<path d="M103.964 44.2215C103.56 44.6442 102.718 45 101.676 45L83.2733 45C82.0951 45 81.2877 44.5774 80.9363 44.1675C80.7679 43.9711 80.7234 43.8065 80.7244 43.6912C80.7253 43.5842 80.7655 43.4084 80.9852 43.1785L98.4488 24.9032C98.952 24.3766 99.2581 23.7175 99.2581 23C99.2581 22.2825 98.952 21.6234 98.4488 21.0968L80.9852 2.82149C80.7655 2.59157 80.7253 2.41578 80.7244 2.30883C80.7234 2.19349 80.7679 2.02889 80.9363 1.83247C81.2877 1.42259 82.0951 1 83.2733 1H101.676C102.718 1 103.56 1.35582 103.964 1.77851L123.745 22.4785C123.951 22.6945 124 22.8765 124 23C124 23.1235 123.951 23.3055 123.745 23.5215L103.964 44.2215ZM64.102 44.2215C63.698 44.6442 62.8556 45 61.8139 45L43.4111 45C42.2329 45 41.4255 44.5774 41.0741 44.1675C40.9057 43.9711 40.8612 43.8065 40.8622 43.6912C40.8631 43.5842 40.9033 43.4084 41.123 43.1785L58.5867 24.9032C59.0899 24.3766 59.3959 23.7175 59.3959 23C59.3959 22.2825 59.0899 21.6234 58.5867 21.0968L41.123 2.82149C40.9033 2.59157 40.8631 2.41578 40.8622 2.30883C40.8612 2.19349 40.9057 2.02889 41.0741 1.83247C41.4255 1.42259 42.2329 1 43.4111 1L61.8138 1C62.8555 1 63.698 1.35582 64.102 1.77851L83.8826 22.4785C84.089 22.6945 84.1378 22.8765 84.1378 23C84.1378 23.1235 84.089 23.3055 83.8826 23.5215L64.102 44.2215ZM1.26083 43.1785L0.550214 42.4995L1.26083 43.1785L18.7245 24.9032C19.2277 24.3766 19.5337 23.7175 19.5337 23C19.5337 22.2825 19.2277 21.6234 18.7245 21.0968L1.26083 2.82149C1.04112 2.59157 1.00091 2.41578 1.00002 2.30883C0.999054 2.19349 1.04355 2.02889 1.21194 1.83247C1.56332 1.42259 2.37069 1 3.54893 1H21.9517C22.9934 1 23.8358 1.35582 24.2398 1.77851L44.0204 22.4785C44.2269 22.6945 44.2756 22.8765 44.2756 23C44.2756 23.1235 44.2269 23.3055 44.0204 23.5215L24.2398 44.2215C23.8358 44.6442 22.9934 45 21.9517 45L3.54894 45C2.37069 45 1.56332 44.5774 1.21194 44.1675C1.04355 43.9711 0.999055 43.8065 1.00002 43.6912C1.00091 43.5842 1.04112 43.4084 1.26083 43.1785Z" stroke="white" stroke-width="2" stroke-linecap="round"/>
</svg>
