<svg xmlns="http://www.w3.org/2000/svg" version="1.1" viewBox="0 0 512.818 85.378">
  <path fill="#262626" fill-opacity="1" d="M10 15 0 25v20l5 5-5 5v20l10 10h29.725l10-10V25l-10-10zm1.058 11.058h27.609v47.883H11.058zm352.585 9.32-10 10v29.725l10 10h29.725l10-10V45.378l-10-10zm0 10h30v30h-30zM154.506 75.103l10 10h-49.725V35.378h49.725v20l-10 10h-30l10-10h20v-10h-29.725v29.725zm20 10h10V45.378h29.726l10-10h-49.726zm238.862 0h10V45.378h29.725l10-10h-49.725zm59.725-10h29.726l10 10h-49.726V45.378l10-10h39.726v20l-10 10h-30l10-10h20v-10h-29.726zm-119.451 10-10-10h-29.725V45.378h29.725l10-10h-49.725v49.725zM0 8.942h40.784L49.725 0H0Zm214.232 76.161h79.685V50.858l-49.685-16.35v-9.13h49.685v-10h-59.685v25.48l49.685 16.35v17.895h-59.685Z"/>
  <path fill="#262626" fill-opacity="1" d="M59.725 35.378v50h29.233l15.767-15.767V35.378h-10v30l-10 10h-15v-40Z"/>
</svg>
