<?xml version="1.0" standalone="no"?>
<!DOCTYPE svg PUBLIC "-//W3C//DTD SVG 20010904//EN"
 "http://www.w3.org/TR/2001/REC-SVG-20010904/DTD/svg10.dtd">
<svg version="1.0" xmlns="http://www.w3.org/2000/svg"
 width="1360.000000pt" height="1360.000000pt" viewBox="0 0 1360.000000 1360.000000"
 preserveAspectRatio="xMidYMid meet">
<metadata>
Created by potrace 1.14, written by Peter Selinger 2001-2017
</metadata>
<g transform="translate(0.000000,1360.000000) scale(0.100000,-0.100000)"
fill="#000000" stroke="none">
<path d="M2830 12845 l0 -722 3253 0 3252 0 718 717 c394 395 717 720 717 722
0 3 -1786 6 -3970 6 l-3970 0 0 -723z"/>
<path d="M4568 11164 c-3 -2 -43 -5 -89 -5 l-84 -1 -782 -782 -783 -781 0
-1626 0 -1625 392 -391 391 -392 -391 -392 -392 -392 0 -1567 0 -1566 23 -21
c12 -11 99 -100 192 -197 94 -98 206 -215 250 -261 44 -45 161 -167 260 -270
99 -103 221 -229 270 -280 50 -51 169 -175 265 -275 96 -100 205 -213 241
-250 l65 -67 2410 0 2409 0 60 62 c33 35 141 147 240 250 99 103 226 234 283
292 56 58 102 106 102 107 0 1 48 52 108 113 59 61 199 206 312 324 113 117
243 252 290 300 47 49 104 108 128 132 l42 44 0 3975 0 3974 -151 144 c-84 80
-189 181 -234 225 -45 44 -172 166 -280 270 -109 105 -224 215 -255 245 -31
30 -139 135 -241 232 -101 98 -247 238 -324 312 l-140 136 -125 0 c-171 1
-202 0 -211 -6 -4 -2 -10 0 -14 6 -4 6 -11 8 -16 4 -6 -3 -90 -5 -187 -5 -212
2 -253 1 -263 -5 -4 -2 -10 0 -14 6 -4 6 -11 8 -16 4 -6 -3 -90 -5 -187 -5
-212 2 -253 1 -263 -5 -4 -2 -10 0 -14 6 -4 6 -11 7 -17 4 -13 -8 -265 -7
-278 1 -6 3 -10 3 -10 -2 0 -7 -54 -9 -120 -3 -14 1 -29 1 -35 0 -22 -4 -147
0 -156 5 -5 4 -9 3 -9 -2 0 -9 -283 -8 -306 1 -8 3 -14 2 -14 -2 0 -6 -57 -7
-120 -2 -14 1 -29 1 -35 0 -22 -4 -147 0 -156 5 -5 4 -9 3 -9 -2 0 -9 -283 -8
-306 1 -8 3 -14 2 -14 -2 0 -6 -57 -7 -120 -2 -14 1 -29 1 -35 0 -22 -4 -147
0 -156 5 -5 4 -9 3 -9 -2 0 -9 -283 -8 -306 1 -8 3 -14 2 -14 -2 0 -6 -57 -7
-120 -2 -14 1 -29 1 -35 0 -22 -4 -147 0 -156 5 -5 4 -9 3 -9 -2 0 -4 -51 -7
-112 -5 -156 3 -199 3 -208 -3 -5 -3 -11 -1 -15 5 -4 6 -11 8 -16 4 -13 -7
-355 -8 -367 0 -5 3 -11 3 -14 0z m4462 -1753 c3 -1 5 -1719 4 -3819 l0 -3817
-2199 0 -2199 0 -1 952 c0 629 3 953 10 953 7 0 7 3 0 8 -7 4 -10 335 -10 957
0 622 3 953 10 957 7 5 7 8 0 8 -7 0 -10 324 -10 952 0 624 3 956 10 960 7 5
7 8 0 8 -7 0 -9 315 -8 927 0 511 2 935 2 943 1 13 251 15 2193 13 1206 0
2195 -2 2198 -2z"/>
</g>
</svg>
