<?xml version="1.0" standalone="no"?>
<!DOCTYPE svg PUBLIC "-//W3C//DTD SVG 20010904//EN"
 "http://www.w3.org/TR/2001/REC-SVG-20010904/DTD/svg10.dtd">
<svg version="1.0" xmlns="http://www.w3.org/2000/svg"
 width="700.000000pt" height="700.000000pt" viewBox="0 0 700.000000 700.000000"
 preserveAspectRatio="xMidYMid meet">
<metadata>
Created by potrace 1.14, written by Peter Selinger 2001-2017
</metadata>
<g transform="translate(0.000000,700.000000) scale(0.100000,-0.100000)"
fill="#000000" stroke="none">
<path d="M3294 6750 c-450 -31 -833 -135 -1239 -335 -326 -160 -595 -354 -855
-615 -261 -260 -455 -529 -615 -855 -234 -475 -337 -917 -337 -1445 0 -510
101 -958 317 -1408 417 -866 1177 -1494 2107 -1741 461 -123 979 -138 1462
-45 868 169 1656 712 2125 1466 457 733 605 1608 416 2453 -32 142 -109 384
-166 522 -110 264 -289 566 -475 798 -113 141 -348 376 -489 489 -346 277
-782 499 -1195 609 -337 90 -729 130 -1056 107z m-1266 -474 c38 -20 72 -58
81 -92 7 -29 9 -29 87 -32 189 -6 2316 -42 2476 -42 l178 0 20 40 c40 78 121
106 197 69 117 -58 117 -210 0 -268 -65 -32 -99 -25 -188 40 -13 10 -65 -10
-275 -103 -239 -107 -259 -117 -256 -139 6 -52 -52 -109 -111 -109 -18 0 -30
-19 -71 -114 l-48 -114 32 -41 c66 -82 44 -192 -48 -236 -40 -19 -42 -22 -38
-55 3 -19 10 -132 17 -250 6 -118 18 -352 27 -518 l17 -304 38 -13 c48 -16 76
-41 93 -82 32 -75 1 -158 -73 -194 l-43 -21 0 -451 c0 -651 9 -977 28 -977 7
0 27 -8 44 -17 95 -57 93 -205 -5 -258 -45 -24 -44 -6 -12 -325 33 -334 34
-340 51 -340 31 0 94 -42 111 -73 9 -17 19 -52 22 -77 l6 -44 257 -102 257
-101 23 24 c76 81 195 68 246 -28 17 -33 22 -54 18 -83 -12 -101 -128 -166
-215 -121 -37 19 -81 71 -81 96 0 11 -6 21 -12 24 -7 2 -308 9 -668 15 -360 6
-882 15 -1160 20 -963 18 -904 18 -908 -5 -7 -37 -51 -83 -97 -101 -39 -14
-52 -15 -87 -5 -149 45 -149 247 0 292 35 10 48 9 85 -5 24 -9 54 -27 66 -40
l22 -23 262 118 c240 108 262 119 259 141 -6 51 52 108 111 108 18 0 30 19 73
118 l51 118 -22 16 c-12 9 -30 32 -39 51 -41 87 2 176 104 219 4 2 -7 252 -24
556 l-31 554 -38 13 c-48 16 -76 41 -93 82 -32 75 -1 158 73 194 l43 21 0 451
c0 657 -9 977 -28 977 -25 0 -76 37 -95 70 -24 40 -24 111 0 153 10 17 36 41
56 52 45 24 44 5 12 330 -33 332 -33 335 -51 335 -8 0 -33 9 -54 20 -47 24
-80 81 -80 140 0 25 -5 40 -12 41 -7 0 -123 44 -258 98 l-245 99 -30 -28 c-42
-38 -68 -50 -112 -50 -116 0 -192 139 -125 229 47 65 129 89 190 57z"/>
<path d="M2320 6115 c8 -2 240 -30 514 -62 423 -48 500 -55 504 -42 3 8 21 30
41 50 l36 37 -445 6 c-245 4 -494 8 -555 11 -60 2 -103 2 -95 0z"/>
<path d="M2116 6100 c3 -2 121 -50 263 -105 l257 -101 18 23 c29 39 73 56 134
51 47 -4 60 -10 87 -40 18 -19 34 -41 37 -48 3 -11 45 -5 204 25 109 21 203
41 208 46 13 11 -7 14 -314 50 -151 17 -415 48 -587 68 -172 20 -310 34 -307
31z"/>
<path d="M3598 6056 c17 -20 32 -43 32 -51 0 -19 -14 -19 252 5 123 10 342 29
488 40 145 12 266 23 269 26 2 2 -58 4 -135 4 -76 0 -319 3 -539 7 l-400 6 33
-37z"/>
<path d="M4345 6015 c-214 -18 -461 -38 -547 -45 l-158 -13 -10 -36 c-9 -36
-45 -78 -83 -98 -17 -9 -16 -11 13 -23 17 -7 41 -27 53 -45 l22 -31 565 156
c311 86 572 159 580 162 24 10 -26 7 -435 -27z"/>
<path d="M4488 5927 c-254 -71 -257 -72 -221 -85 20 -7 44 -18 52 -26 14 -12
43 -2 225 80 198 89 232 105 210 103 -5 -1 -125 -33 -266 -72z"/>
<path d="M3110 5871 c-138 -27 -185 -40 -185 -51 0 -10 53 -26 203 -59 l202
-45 35 42 c20 22 45 44 56 47 20 7 19 8 -9 25 -17 11 -41 33 -53 49 -13 18
-31 31 -43 30 -12 0 -104 -17 -206 -38z"/>
<path d="M3962 5782 c-134 -37 -236 -68 -227 -70 8 -2 84 4 168 12 244 26 234
24 246 57 5 16 25 38 43 49 18 11 29 20 23 19 -5 0 -119 -31 -253 -67z"/>
<path d="M2895 5737 c-11 -18 -37 -40 -57 -50 -32 -16 -37 -22 -33 -45 3 -15
16 -144 30 -287 34 -350 28 -322 76 -335 23 -6 42 -10 43 -8 23 30 259 334
329 423 94 120 94 120 77 145 -9 14 -21 43 -26 64 l-9 40 -195 43 c-107 23
-199 42 -205 42 -5 0 -19 -14 -30 -32z"/>
<path d="M3889 5691 l-247 -24 -6 -40 c-4 -22 -3 -44 1 -48 4 -4 71 -52 147
-107 l139 -99 35 23 c24 17 49 24 82 24 45 0 48 2 62 38 9 20 31 73 50 117
l35 81 -26 30 -26 29 -246 -24z"/>
<path d="M3578 5543 l-26 -16 83 -241 c46 -133 160 -461 255 -731 94 -269 177
-506 183 -525 7 -23 12 -29 14 -18 4 15 -37 801 -53 1024 l-6 81 -38 12 c-42
12 -86 58 -96 98 -4 13 -4 47 -1 74 l6 49 -52 38 c-29 21 -95 68 -147 105 -94
64 -96 65 -122 50z"/>
<path d="M3299 5403 c-57 -75 -154 -199 -215 -276 l-112 -141 22 -29 c15 -21
21 -43 21 -82 0 -65 -23 -100 -84 -132 l-43 -22 2 -553 c2 -304 5 -622 9 -707
l6 -155 87 370 c48 203 166 698 263 1101 96 402 175 736 175 741 0 6 -6 12
-13 15 -9 3 -53 -46 -118 -130z"/>
<path d="M3488 5512 c-16 -2 -28 -6 -28 -10 0 -4 -45 -196 -101 -427 -55 -231
-149 -627 -209 -880 -60 -253 -134 -560 -163 -682 -30 -123 -50 -223 -46 -223
4 0 21 -11 38 -25 l30 -26 483 276 483 276 -4 45 c-5 63 4 88 44 127 l35 34
-171 489 c-94 269 -213 610 -265 758 -51 148 -95 269 -96 270 -2 1 -15 0 -30
-2z"/>
<path d="M3505 3483 l-480 -275 4 -44 c5 -63 -4 -88 -44 -127 l-36 -35 60
-168 c46 -129 359 -1026 458 -1310 12 -36 16 -40 42 -36 22 3 30 11 34 30 3
15 118 497 255 1072 138 575 253 1060 257 1078 6 30 3 37 -26 63 -19 15 -36
28 -39 28 -3 0 -221 -124 -485 -276z"/>
<path d="M4033 3430 c-34 -146 -121 -508 -192 -805 -257 -1072 -274 -1147
-261 -1155 16 -10 53 35 397 480 l50 65 -21 28 c-15 21 -21 43 -21 82 0 65 23
100 84 132 l43 22 -2 543 c-1 299 -5 617 -9 708 l-6 165 -62 -265z"/>
<path d="M2910 2964 c0 -21 4 -111 10 -199 5 -88 16 -286 25 -440 8 -154 18
-317 21 -361 l6 -81 38 -12 c42 -12 86 -58 96 -98 4 -13 4 -47 1 -74 l-6 -49
141 -101 c77 -55 146 -102 152 -105 6 -2 21 5 33 15 l22 19 -39 108 c-21 60
-93 267 -160 459 -67 193 -169 485 -226 649 -58 165 -107 302 -109 305 -3 2
-5 -13 -5 -35z"/>
<path d="M3995 1922 c-27 -37 -84 -110 -125 -162 -42 -52 -105 -133 -141 -179
-35 -46 -72 -94 -82 -107 -18 -23 -18 -25 2 -67 12 -24 21 -48 21 -55 0 -6 17
-16 38 -21 20 -6 114 -30 207 -54 l170 -44 20 31 c11 17 36 39 55 48 40 21 40
-17 4 343 -33 337 -27 312 -72 325 -20 5 -39 10 -42 9 -3 0 -27 -30 -55 -67z"/>
<path d="M3041 1603 c-24 -16 -48 -23 -81 -23 l-47 0 -50 -117 c-50 -116 -50
-118 -32 -139 11 -11 19 -25 19 -32 0 -6 12 -9 33 -6 31 4 93 10 354 36 119
11 121 12 126 37 2 14 6 32 8 40 4 12 -77 76 -241 190 l-55 38 -34 -24z"/>
<path d="M3660 1286 c0 -19 -38 -65 -71 -85 l-28 -17 34 -18 c18 -10 41 -33
51 -51 l17 -32 56 12 c31 7 123 25 204 41 137 25 174 40 154 61 -8 7 -377 103
-399 103 -10 0 -18 -6 -18 -14z"/>
<path d="M3050 1270 c-85 -11 -162 -19 -172 -19 -9 -1 -21 -14 -26 -31 -6 -16
-26 -39 -44 -51 -20 -12 -25 -19 -13 -16 32 7 469 127 480 132 23 8 -81 1
-225 -15z"/>
<path d="M3255 1245 c-44 -12 -231 -64 -415 -115 -571 -158 -645 -179 -631
-179 8 -1 123 8 255 19 133 11 385 31 561 45 176 14 326 28 333 30 6 2 12 14
12 26 0 27 35 76 71 98 l28 17 -34 19 c-19 10 -42 29 -50 41 -19 29 -28 29
-130 -1z"/>
<path d="M2452 1102 c-116 -53 -210 -97 -209 -98 2 -3 299 78 462 124 39 12
61 21 49 21 -12 1 -37 12 -56 25 l-35 23 -211 -95z"/>
<path d="M3863 1091 c-100 -20 -185 -39 -188 -43 -10 -10 18 -15 180 -33 77
-8 330 -38 563 -65 233 -28 433 -50 445 -50 12 0 -95 47 -238 104 l-259 103
-19 -24 c-61 -77 -197 -68 -245 17 -11 19 -25 29 -37 29 -11 -1 -102 -18 -202
-38z"/>
<path d="M3155 994 c-82 -8 -284 -25 -448 -38 -164 -13 -301 -27 -304 -30 -4
-3 57 -6 134 -6 77 0 310 -3 519 -7 l379 -6 -33 37 c-17 20 -32 43 -32 51 0
18 -9 18 -215 -1z"/>
<path d="M3656 985 c-3 -13 -21 -36 -40 -53 l-34 -30 476 -6 c263 -4 513 -8
557 -11 44 -2 73 -2 65 0 -8 3 -233 29 -500 60 -267 30 -493 57 -502 59 -10 2
-18 -4 -22 -19z"/>
</g>
</svg>
